<?xml version="1.0" encoding="UTF-8"?>
<svg version="1.1" xmlns="http://www.w3.org/2000/svg" width="512" height="512">
<path d="M0 0 C5.92412956 2.69278616 6.5204325 4.91075688 10 11 C10 17.93 10 24.86 10 32 C31.45 32 52.9 32 75 32 C75 25.4 75 18.8 75 12 C79.88372093 2.23255814 79.88372093 2.23255814 85 0 C89.90961163 -0.62814149 94.31658437 -0.68052972 98.9375 1.1875 C101.87529227 3.76919623 104.24572228 6.49144457 106 10 C106 17.26 106 24.52 106 32 C127.78 32 149.56 32 172 32 C172 24.74 172 17.48 172 10 C177.71428571 1.42857143 177.71428571 1.42857143 182 0 C187.18749192 -0.49676139 191.61804673 -0.60303415 196.4375 1.5 C199 4 199 4 203 12 C203 18.6 203 25.2 203 32 C224.45 32 245.9 32 268 32 C268 25.07 268 18.14 268 11 C270.80569424 5.38861152 272.52707905 2.73646048 278 0 C283.31135952 -0.52940021 287.67272741 -0.66363629 292.5 1.75 C295.75983476 4.68385128 297.61095276 6.83285829 299 11 C299.08143855 12.62719482 299.1075302 14.25751719 299.09765625 15.88671875 C299.09443359 16.82451172 299.09121094 17.76230469 299.08789062 18.72851562 C299.07951172 19.70498047 299.07113281 20.68144531 299.0625 21.6875 C299.05798828 22.67556641 299.05347656 23.66363281 299.04882812 24.68164062 C299.03704303 27.12115474 299.02059011 29.56054689 299 32 C299.61006393 31.99111755 300.22012787 31.98223511 300.84867859 31.9730835 C307.25750256 31.88388021 313.66614726 31.82396621 320.07543945 31.78027344 C322.46027808 31.7602856 324.8450685 31.73308605 327.22973633 31.69824219 C348.68798659 31.39278667 364.4013415 33.28867666 380.67578125 48.515625 C389.75011005 58.21524368 395.11405042 70.40978223 395.13422108 83.66970062 C395.13657331 84.33004083 395.13892554 84.99038103 395.14134905 85.67073154 C395.14801468 87.88707168 395.14758156 90.10335285 395.14717102 92.31970215 C395.15047117 93.92342547 395.15419706 95.52714796 395.1583125 97.13086939 C395.16832353 101.54108971 395.17204785 105.95129642 395.17470181 110.36152649 C395.17860754 115.11702044 395.18818572 119.87250364 395.19691467 124.62799072 C395.21667182 136.11438798 395.22674449 147.60078611 395.23564246 159.08719611 C395.24002672 164.49785402 395.24539319 169.90851095 395.25063133 175.31916809 C395.26764311 193.30816189 395.28213685 211.29715509 395.28938007 229.2861557 C395.29128993 233.95379131 395.29321027 238.62142691 395.29516602 243.2890625 C395.29564976 244.44916472 395.2961335 245.60926694 395.2966319 246.80452377 C395.30493061 265.59364645 395.33026509 284.38270544 395.36274669 303.17180032 C395.39583093 322.4669844 395.41383008 341.76213613 395.41702431 361.05734873 C395.41918818 371.88891455 395.42791875 382.7203875 395.45348549 393.55192566 C395.47521112 402.77740358 395.48323372 412.00276606 395.47351871 421.22826666 C395.46897939 425.9326712 395.47083881 430.63683765 395.49028015 435.34120941 C395.507951 439.65454469 395.50688247 443.96746886 395.49138286 448.28080875 C395.48901272 449.83472113 395.49329929 451.38866228 395.50521151 452.94253081 C395.63348882 470.7923369 390.72683657 484.59113692 378.484375 497.67578125 C368.57631578 506.94511338 356.32936107 512.11525504 342.83054352 512.13422108 C341.75899127 512.13774942 341.75899127 512.13774942 340.66579151 512.14134905 C338.26566374 512.1480201 335.86559035 512.1475814 333.4654541 512.14717102 C331.72973724 512.15047083 329.99402114 512.15419664 328.25830603 512.1583125 C323.48323545 512.16832738 318.70817743 512.17204847 313.93309784 512.17470181 C308.78496263 512.17860639 303.63683736 512.18818464 298.4887085 512.19691467 C286.05309977 512.21667494 273.61749024 512.22674483 261.18186975 512.23564246 C255.32491519 512.24002616 249.46796153 512.24539277 243.61100769 512.25063133 C224.13967324 512.26764333 204.66833934 512.28213728 185.1969986 512.28938007 C180.14435322 512.29128995 175.09170786 512.29321029 170.0390625 512.29516602 C168.78326061 512.29564976 167.52745872 512.2961335 166.23360223 512.2966319 C145.89251552 512.30493139 125.55148765 512.3302671 105.21042663 512.36274669 C84.32418518 512.39582476 63.43797362 512.41382952 42.55170584 512.41702431 C30.82588141 512.41918873 19.10014276 512.42792751 7.37434387 512.45348549 C-2.61236597 512.47520267 -12.5989692 512.48323786 -22.58569998 512.47351871 C-27.67894878 512.46897697 -32.77197765 512.47085303 -37.86519623 512.49028015 C-42.53380249 512.50793346 -47.20202873 512.50689646 -51.87063915 512.49138286 C-53.55375621 512.48901009 -55.23689974 512.49331308 -56.91997641 512.50521151 C-75.10747465 512.62575601 -89.23761168 508.05760744 -102.67578125 495.484375 C-111.33502426 486.22844466 -117.11492897 474.15695879 -117.13422108 461.43772984 C-117.13657331 460.7768551 -117.13892554 460.11598037 -117.14134905 459.43507913 C-117.14802912 457.21089913 -117.14758112 454.98677768 -117.14717102 452.7625885 C-117.15047028 451.15560344 -117.15419598 449.5486192 -117.1583125 447.94163603 C-117.16833385 443.51775479 -117.17204952 439.09388712 -117.17470181 434.66999614 C-117.17860454 429.9015329 -117.18818301 425.13308041 -117.19691467 420.36462402 C-117.21668153 408.84369681 -117.22674627 397.32276871 -117.23564246 385.80182877 C-117.24002562 380.37572765 -117.24539241 374.9496275 -117.25063133 369.52352715 C-117.26764499 351.48396158 -117.28213845 333.44439662 -117.28938007 315.40482426 C-117.29128996 310.72292645 -117.29321029 306.04102865 -117.29516602 301.35913086 C-117.29564976 300.19547253 -117.2961335 299.03181419 -117.2966319 297.83289348 C-117.3049295 278.98874183 -117.33026126 260.14465371 -117.36274669 241.30052979 C-117.39583098 221.95113677 -117.41383014 202.60177601 -117.41702431 183.25235456 C-117.4191883 172.38947482 -117.42792058 161.52668769 -117.45348549 150.66383553 C-117.47521128 141.4108851 -117.48323369 132.15804978 -117.47351871 122.90507675 C-117.46897927 118.18650256 -117.47083945 113.46816576 -117.49028015 108.74962425 C-117.50795039 104.42329651 -117.50688295 100.09737866 -117.49138286 95.77104633 C-117.48901261 94.21239347 -117.49329986 92.65371194 -117.50521151 91.09510279 C-117.6331709 73.2343927 -112.74576223 59.41130744 -100.48046875 46.32421875 C-91.60247679 38.00547038 -79.20068851 31.85593889 -66.86425781 31.88647461 C-65.84350159 31.88655014 -64.82274536 31.88662567 -63.77105713 31.88670349 C-62.67613953 31.89186478 -61.58122192 31.89702606 -60.453125 31.90234375 C-58.76361725 31.90446617 -58.76361725 31.90446617 -57.03997803 31.90663147 C-53.44329165 31.91222801 -49.84666756 31.9247799 -46.25 31.9375 C-43.81119882 31.94251545 -41.37239666 31.94707828 -38.93359375 31.95117188 C-32.95570792 31.9621963 -26.97785841 31.97893102 -21 32 C-21.01571045 31.39526855 -21.0314209 30.79053711 -21.04760742 30.16748047 C-21.1103188 27.40341704 -21.14910411 24.63950379 -21.1875 21.875 C-21.21263672 20.92367188 -21.23777344 19.97234375 -21.26367188 18.9921875 C-21.32027756 13.55804201 -21.12171297 9.66777461 -18 5 C-12.16551207 -0.2652696 -7.71405294 -0.76376762 0 0 Z M-81.5 72 C-92.08977783 87.95924265 -87 110.84634563 -87 128 C62.16 128 211.32 128 365 128 C367.92790575 97.31885317 367.92790575 97.31885317 357 69 C352.13733042 65.14847154 347.61638987 62.86966115 341.3449707 62.88647461 C340.40422195 62.88655014 339.46347321 62.88662567 338.49421692 62.88670349 C336.97534126 62.89444542 336.97534126 62.89444542 335.42578125 62.90234375 C333.86732735 62.90446617 333.86732735 62.90446617 332.27738953 62.90663147 C328.95573052 62.91223344 325.63413867 62.92478628 322.3125 62.9375 C320.06184993 62.94251475 317.81119881 62.9470777 315.56054688 62.95117188 C310.04034163 62.96220351 304.52017561 62.97894357 299 63 C298.98598145 63.90709717 298.98598145 63.90709717 298.97167969 64.83251953 C298.91768278 67.5974788 298.83409606 70.36079906 298.75 73.125 C298.73582031 74.07632813 298.72164063 75.02765625 298.70703125 76.0078125 C298.45975865 83.12926341 297.18556366 86.57846866 292.3125 91.8125 C287.2964309 94.38831927 282.52761636 94.45077204 277.1875 92.875 C272.83044947 90.3120291 270.59693404 87.79080211 269 83 C268.67 76.4 268.34 69.8 268 63 C246.55 63 225.1 63 203 63 C202.67 69.27 202.34 75.54 202 82 C198.30677291 90.61752988 198.30677291 90.61752988 194 93 C187.94788614 94.60694058 183.27079032 94.30325776 177.69140625 91.49609375 C176 90 176 90 173 84 C172.67 77.07 172.34 70.14 172 63 C150.22 63 128.44 63 106 63 C105.67 69.93 105.34 76.86 105 84 C101.4441568 91.11168639 101.4441568 91.11168639 96.3203125 93.37109375 C90.92121343 94.83448592 85.90820596 94.05560329 81.0625 91.375 C73.70860006 82.90687279 75.59614937 74.32683811 75 63 C53.55 63 32.1 63 10 63 C9.67 69.6 9.34 76.2 9 83 C5.20895522 90.58208955 5.20895522 90.58208955 1 93 C-3.7772029 94.16634051 -7.68426662 94.43857779 -12.375 92.875 C-15.80081621 90.42798842 -18.11746243 87.76507515 -20 84 C-20.15175549 82.40737934 -20.24900325 80.80935144 -20.31640625 79.2109375 C-20.35830078 78.26992187 -20.40019531 77.32890625 -20.44335938 76.359375 C-20.48267578 75.37453125 -20.52199219 74.3896875 -20.5625 73.375 C-20.60568359 72.38242188 -20.64886719 71.38984375 -20.69335938 70.3671875 C-20.79961069 67.91160162 -20.90164964 65.45591297 -21 63 C-27.51020197 62.87242952 -34.02007749 62.78532828 -40.53125 62.7253418 C-42.74263555 62.70031516 -44.95393937 62.6662831 -47.16503906 62.62280273 C-50.35762791 62.56162824 -53.54911613 62.53367086 -56.7421875 62.51171875 C-58.20686966 62.47300911 -58.20686966 62.47300911 -59.70114136 62.43351746 C-68.51372893 62.42997773 -75.90370426 64.94142932 -81.5 72 Z M-87 159 C-87.04125 207.984375 -87.0825 256.96875 -87.125 307.4375 C-87.14320801 322.91325928 -87.16141602 338.38901855 -87.18017578 354.33374023 C-87.18686401 368.18744615 -87.18686401 368.18744615 -87.19088745 382.04115295 C-87.19275324 388.21910624 -87.20009265 394.39702339 -87.21115112 400.57496643 C-87.22388775 407.70097372 -87.22967048 414.82694633 -87.2268899 421.95296508 C-87.22568579 425.59770575 -87.22758639 429.24236891 -87.23843026 432.88709533 C-87.24998018 436.79291841 -87.24598273 440.69863865 -87.24050903 444.60447693 C-87.24633436 445.7374373 -87.25215969 446.87039766 -87.25816154 448.03769016 C-87.21884849 458.46686729 -86.05354258 466.94551125 -79 475 C-69.5899975 483.14212848 -57.43931707 482.28944752 -45.71679688 482.25396729 C-44.05727248 482.25627368 -42.3977491 482.2594514 -40.73822784 482.26342177 C-36.1924769 482.27175388 -31.64681017 482.26765169 -27.10105896 482.26144934 C-22.19301794 482.25691938 -17.28499128 482.26391131 -12.37695312 482.26940918 C-2.76781702 482.278299 6.84128782 482.27638299 16.45042515 482.2705839 C24.26049112 482.26606581 32.07054833 482.26545515 39.88061523 482.26763153 C40.99249254 482.267938 42.10436984 482.26824446 43.2499404 482.26856022 C45.50874901 482.26919967 47.76755762 482.2698481 50.02636623 482.2705054 C71.20359616 482.27620749 92.38080877 482.26965269 113.55803585 482.25890467 C131.72619924 482.24996927 149.89433707 482.25152134 168.0625 482.26074219 C189.16433381 482.27144695 210.26615244 482.27565818 231.36798859 482.26951766 C233.61845398 482.26888057 235.86891937 482.26825183 238.11938477 482.26763153 C239.78026131 482.2671687 239.78026131 482.2671687 241.47469091 482.26669653 C249.27471627 482.26497021 257.07473199 482.26788334 264.87475586 482.27259064 C274.38130366 482.27820174 283.88781843 482.27667815 293.39436245 482.26602915 C298.24404658 482.26077556 303.09367566 482.25871041 307.94335938 482.26532745 C312.38452472 482.27129543 316.82558409 482.26799774 321.26673985 482.25737235 C322.87159909 482.25514193 324.47646732 482.25626656 326.08132076 482.26112393 C338.03947487 482.29453537 348.57972272 482.24960204 358 474 C365.2757885 465.591242 365.29509532 455.22088996 365.24050903 444.60447693 C365.24222107 443.38282837 365.24393311 442.16117981 365.24569702 440.9025116 C365.24842036 437.5264915 365.24218978 434.15070577 365.23214546 430.77471404 C365.22338077 427.07264719 365.22633674 423.37058578 365.2277813 419.66851139 C365.22884249 412.48972876 365.21962858 405.31099636 365.20677864 398.13222662 C365.19235434 389.82451499 365.19078781 381.51683335 365.18920898 373.20910645 C365.17871685 351.28522969 365.15079453 329.36136409 365.125 307.4375 C365.08375 258.453125 365.0425 209.46875 365 159 C215.84 159 66.68 159 -87 159 Z " fill="#000000" transform="translate(117,0)"/>
<path d="M0 0 C0.6930574 -0.0049649 1.38611481 -0.00992981 2.10017395 -0.01504517 C4.39255773 -0.02964735 6.68487228 -0.03646588 8.97729492 -0.04199219 C10.57289125 -0.0477457 12.16848756 -0.05350341 13.76408386 -0.05926514 C17.11062949 -0.06976991 20.45715114 -0.07561585 23.80371094 -0.07910156 C28.08428318 -0.08458206 32.36453666 -0.10860259 36.64500904 -0.13707352 C39.9419191 -0.15573209 43.2387529 -0.16090723 46.53571129 -0.16243744 C48.11331612 -0.16545776 49.69091981 -0.17346532 51.26847267 -0.18662262 C53.48000691 -0.20374934 55.69076942 -0.20178707 57.90234375 -0.1953125 C59.15904373 -0.19895813 60.41574371 -0.20260376 61.71052551 -0.20635986 C66.11892536 0.26530772 69.46779787 1.66695306 72.78979492 4.62597656 C76.93659332 9.85454846 77.2688513 13.26288265 77.30639648 19.83813477 C77.31384384 20.8316394 77.31384384 20.8316394 77.32144165 21.84521484 C77.33601072 24.02995861 77.34285667 26.21462976 77.34838867 28.39941406 C77.35414472 29.92392477 77.35990239 31.44843547 77.36566162 32.97294617 C77.37615685 36.16808406 77.38200909 39.36319691 77.38549805 42.55834961 C77.39097783 46.64038385 77.41500083 50.72208373 77.44347 54.80401325 C77.46215018 57.9534144 77.46730484 61.10273588 77.46883392 64.25218773 C77.47184916 65.75639866 77.47983937 67.26060857 77.4930191 68.76476479 C77.51019216 70.87541323 77.50817256 72.98525614 77.50170898 75.09594727 C77.50717743 76.8932 77.50717743 76.8932 77.51275635 78.72676086 C77.02024087 83.32952289 75.73388685 87.35826784 72.61010742 90.90332031 C67.63593812 94.59260189 65.42565301 95.29085751 59.22045898 95.33813477 C58.15183121 95.34799156 58.15183121 95.34799156 57.06161499 95.35804749 C54.69887184 95.37779177 52.33619235 95.38944665 49.97338867 95.39941406 C49.16630211 95.40348959 48.35921555 95.40756512 47.52767181 95.41176414 C43.2543717 95.43263152 38.98110374 95.4469293 34.70776367 95.45629883 C30.29815869 95.46735377 25.88905966 95.50174078 21.47963333 95.54147053 C18.08578569 95.56764617 14.6920583 95.57599157 11.29811859 95.57958031 C9.6730483 95.58444528 8.04798335 95.59605681 6.42301178 95.6146183 C4.14415225 95.63902697 1.86659734 95.6380421 -0.41235352 95.63110352 C-1.70759949 95.63696976 -3.00284546 95.642836 -4.33734131 95.64888 C-9.59272632 94.92013067 -12.62710153 92.48830557 -16.16723633 88.66113281 C-19.06451016 84.36887529 -18.98665029 80.60120029 -19.01586914 75.48413086 C-19.02083405 74.82179443 -19.02579895 74.15945801 -19.03091431 73.47705078 C-19.04548337 71.29230701 -19.05232932 69.10763587 -19.05786133 66.92285156 C-19.06361738 65.39834085 -19.06937505 63.87383015 -19.07513428 62.34931946 C-19.0856295 59.15418156 -19.09148174 55.95906871 -19.0949707 52.76391602 C-19.10045049 48.68188177 -19.12447349 44.6001819 -19.15294266 40.51825237 C-19.17162284 37.36885123 -19.1767775 34.21952975 -19.17830658 31.0700779 C-19.18132182 29.56586696 -19.18931202 28.06165705 -19.20249176 26.55750084 C-19.21966482 24.4468524 -19.21764521 22.33700949 -19.21118164 20.22631836 C-19.21482727 19.02814987 -19.2184729 17.82998138 -19.222229 16.59550476 C-18.73013422 11.99667428 -17.43185046 7.99288516 -14.35473633 4.41894531 C-9.35326235 0.64179049 -6.18849533 0.03368781 0 0 Z M12.14526367 31.16113281 C12.14526367 42.05113281 12.14526367 52.94113281 12.14526367 64.16113281 C23.36526367 64.16113281 34.58526367 64.16113281 46.14526367 64.16113281 C46.14526367 53.27113281 46.14526367 42.38113281 46.14526367 31.16113281 C34.92526367 31.16113281 23.70526367 31.16113281 12.14526367 31.16113281 Z " fill="#000000" transform="translate(226.854736328125,336.8388671875)"/>
<path d="M0 0 C0.99350464 -0.00744736 0.99350464 -0.00744736 2.00708008 -0.01504517 C4.19182385 -0.02961423 6.37649499 -0.03646018 8.5612793 -0.04199219 C10.08579 -0.04774823 11.61030071 -0.05350591 13.1348114 -0.05926514 C16.3299493 -0.06976036 19.52506214 -0.0756126 22.72021484 -0.07910156 C26.80224909 -0.08458135 30.88394896 -0.10860435 34.96587849 -0.13707352 C38.11527963 -0.1557537 41.26460111 -0.16090836 44.41405296 -0.16243744 C45.9182639 -0.16545268 47.42247381 -0.17344288 48.92663002 -0.18662262 C51.03727846 -0.20379568 53.14712137 -0.20177607 55.2578125 -0.1953125 C56.45598099 -0.19895813 57.65414948 -0.20260376 58.8886261 -0.20635986 C63.49138813 0.28615561 67.52013307 1.57250964 71.06518555 4.69628906 C74.75446712 9.67045836 75.45272275 11.88074347 75.5 18.0859375 C75.5065712 18.79835602 75.5131424 19.51077454 75.51991272 20.24478149 C75.539657 22.60752464 75.55131188 24.97020414 75.5612793 27.33300781 C75.56535482 28.14009438 75.56943035 28.94718094 75.57362938 29.77872467 C75.59449676 34.05202479 75.60879453 38.32529275 75.61816406 42.59863281 C75.62921901 47.00823779 75.66360602 51.41733682 75.70333576 55.82676315 C75.7295114 59.22061079 75.73785681 62.61433819 75.74144554 66.00827789 C75.74631051 67.63334818 75.75792205 69.25841314 75.77648354 70.8833847 C75.8008922 73.16224423 75.79990734 75.43979915 75.79296875 77.71875 C75.79883499 79.01399597 75.80470123 80.30924194 75.81074524 81.64373779 C75.0819959 86.8991228 72.6501708 89.93349801 68.82299805 93.47363281 C64.53074052 96.37090664 60.76306553 96.29304678 55.64599609 96.32226562 C54.98365967 96.32723053 54.32132324 96.33219543 53.63891602 96.33731079 C51.45417225 96.35187986 49.2695011 96.35872581 47.0847168 96.36425781 C45.56020609 96.37001386 44.03569539 96.37577153 42.51118469 96.38153076 C39.3160468 96.39202599 36.12093395 96.39787823 32.92578125 96.40136719 C28.843747 96.40684697 24.76204713 96.43086997 20.68011761 96.45933914 C17.53071646 96.47801932 14.38139498 96.48317399 11.23194313 96.48470306 C9.7277322 96.4877183 8.22352229 96.49570851 6.71936607 96.50888824 C4.60871763 96.5260613 2.49887472 96.5240417 0.38818359 96.51757812 C-1.40906914 96.52304657 -1.40906914 96.52304657 -3.24263 96.52862549 C-7.84146048 96.03653071 -11.8452496 94.73824694 -15.41918945 91.66113281 C-19.19634428 86.65965884 -19.80444696 83.49489181 -19.83813477 77.30639648 C-19.84309967 76.61333908 -19.84806458 75.92028168 -19.85317993 75.20622253 C-19.86778211 72.91383876 -19.87460065 70.62152421 -19.88012695 68.32910156 C-19.88588046 66.73350523 -19.89163817 65.13790892 -19.8973999 63.54231262 C-19.90790467 60.19576699 -19.91375061 56.84924534 -19.91723633 53.50268555 C-19.92271682 49.2221133 -19.94673736 44.94185982 -19.97520828 40.66138744 C-19.99386686 37.36447739 -19.99904199 34.06764358 -20.0005722 30.7706852 C-20.00359252 29.19308036 -20.01160009 27.61547667 -20.02475739 26.03792381 C-20.0418841 23.82638957 -20.03992183 21.61562707 -20.03344727 19.40405273 C-20.0370929 18.14735275 -20.04073853 16.89065277 -20.04449463 15.59587097 C-19.57282704 11.18747112 -18.1711817 7.83859861 -15.2121582 4.51660156 C-9.98358631 0.36980316 -6.57525212 0.03754518 0 0 Z M11.32299805 31.16113281 C11.32299805 42.38113281 11.32299805 53.60113281 11.32299805 65.16113281 C22.21299805 65.16113281 33.10299805 65.16113281 44.32299805 65.16113281 C44.32299805 53.94113281 44.32299805 42.72113281 44.32299805 31.16113281 C33.43299805 31.16113281 22.54299805 31.16113281 11.32299805 31.16113281 Z " fill="#000000" transform="translate(364.677001953125,207.8388671875)"/>
<path d="M0 0 C0.99350464 -0.00744736 0.99350464 -0.00744736 2.00708008 -0.01504517 C4.19182385 -0.02961423 6.37649499 -0.03646018 8.5612793 -0.04199219 C10.08579 -0.04774823 11.61030071 -0.05350591 13.1348114 -0.05926514 C16.3299493 -0.06976036 19.52506214 -0.0756126 22.72021484 -0.07910156 C26.80224909 -0.08458135 30.88394896 -0.10860435 34.96587849 -0.13707352 C38.11527963 -0.1557537 41.26460111 -0.16090836 44.41405296 -0.16243744 C45.9182639 -0.16545268 47.42247381 -0.17344288 48.92663002 -0.18662262 C51.03727846 -0.20379568 53.14712137 -0.20177607 55.2578125 -0.1953125 C56.45598099 -0.19895813 57.65414948 -0.20260376 58.8886261 -0.20635986 C63.48745657 0.28573492 67.4912457 1.58401868 71.06518555 4.66113281 C74.84234037 9.66260679 75.45044305 12.82737381 75.48413086 19.01586914 C75.49157822 20.05545525 75.49157822 20.05545525 75.49917603 21.11604309 C75.5137782 23.40842687 75.52059674 25.70074142 75.52612305 27.99316406 C75.53187656 29.58876039 75.53763427 31.1843567 75.543396 32.779953 C75.55390077 36.12649863 75.55974671 39.47302028 75.56323242 42.81958008 C75.56871292 47.10015232 75.59273345 51.3804058 75.62120438 55.66087818 C75.63986295 58.95778824 75.64503809 62.25462204 75.6465683 65.55158043 C75.64958862 67.12918526 75.65759618 68.70678895 75.67075348 70.28434181 C75.6878802 72.49587605 75.68591792 74.70663856 75.67944336 76.91821289 C75.6849118 78.80326286 75.6849118 78.80326286 75.69049072 80.72639465 C75.21882314 85.1347945 73.8171778 88.48366701 70.8581543 91.80566406 C65.6295824 95.95246246 62.22124821 96.28472044 55.64599609 96.32226562 C54.98365967 96.32723053 54.32132324 96.33219543 53.63891602 96.33731079 C51.45417225 96.35187986 49.2695011 96.35872581 47.0847168 96.36425781 C45.56020609 96.37001386 44.03569539 96.37577153 42.51118469 96.38153076 C39.3160468 96.39202599 36.12093395 96.39787823 32.92578125 96.40136719 C28.843747 96.40684697 24.76204713 96.43086997 20.68011761 96.45933914 C17.53071646 96.47801932 14.38139498 96.48317399 11.23194313 96.48470306 C9.7277322 96.4877183 8.22352229 96.49570851 6.71936607 96.50888824 C4.60871763 96.5260613 2.49887472 96.5240417 0.38818359 96.51757812 C-1.40906914 96.52304657 -1.40906914 96.52304657 -3.24263 96.52862549 C-7.84539204 96.03611001 -11.87413698 94.74975599 -15.41918945 91.62597656 C-19.10847103 86.65180726 -19.80672665 84.44152215 -19.85400391 78.23632812 C-19.8605751 77.52390961 -19.8671463 76.81149109 -19.87391663 76.07748413 C-19.89366091 73.71474098 -19.90531579 71.35206149 -19.9152832 68.98925781 C-19.91935873 68.18217125 -19.92343426 67.37508469 -19.92763329 66.54354095 C-19.94850066 62.27024084 -19.96279844 57.99697288 -19.97216797 53.72363281 C-19.98322291 49.31402783 -20.01760992 44.9049288 -20.05733967 40.49550247 C-20.08351531 37.10165483 -20.09186071 33.70792744 -20.09544945 30.31398773 C-20.10031442 28.68891744 -20.11192596 27.06385249 -20.13048744 25.43888092 C-20.15489611 23.16002139 -20.15391124 20.88246648 -20.14697266 18.60351562 C-20.1528389 17.30826965 -20.15870514 16.01302368 -20.16474915 14.67852783 C-19.43599981 9.42314282 -17.00417471 6.38876761 -13.17700195 2.84863281 C-8.88474443 -0.04864102 -5.11706943 0.02921885 0 0 Z M11.32299805 31.16113281 C11.32299805 42.38113281 11.32299805 53.60113281 11.32299805 65.16113281 C22.21299805 65.16113281 33.10299805 65.16113281 44.32299805 65.16113281 C44.32299805 53.94113281 44.32299805 42.72113281 44.32299805 31.16113281 C33.43299805 31.16113281 22.54299805 31.16113281 11.32299805 31.16113281 Z " fill="#000000" transform="translate(91.677001953125,207.8388671875)"/>
<path d="M0 0 C0.70339508 -0.00540298 1.40679016 -0.01080597 2.13150024 -0.01637268 C4.43503105 -0.02878538 6.73729365 -0.01242226 9.04077148 0.00561523 C10.65307175 0.00546009 12.26537238 0.00396852 13.87767029 0.00120544 C17.24755452 -0.00017514 20.61701137 0.01232323 23.98681641 0.03515625 C28.29649877 0.06356301 32.60547289 0.06079292 36.91520786 0.04806614 C40.24132796 0.04109719 43.56728559 0.04891168 46.89338493 0.06132317 C48.48213006 0.06582426 50.07089271 0.06618624 51.65963936 0.06225777 C53.88282915 0.0593329 56.10505709 0.07591089 58.328125 0.09765625 C60.22172508 0.10576073 60.22172508 0.10576073 62.15357971 0.11402893 C67.21116372 0.68304996 70.4652819 2.27567294 73.91186523 6.00170898 C76.7455865 10.19981456 76.73385877 13.48526262 76.76049805 18.44824219 C76.7679454 19.50245865 76.7679454 19.50245865 76.77554321 20.57797241 C76.79014648 22.90282166 76.7969641 25.22760265 76.80249023 27.55249023 C76.80824364 29.17050681 76.81400135 30.78852337 76.81976318 32.40653992 C76.83026825 35.80016395 76.836114 39.19376434 76.83959961 42.58740234 C76.84508029 46.92850679 76.86910111 51.26929695 76.89757156 55.61030293 C76.91622871 58.953536 76.9214052 62.29669387 76.92293549 65.63997459 C76.92595611 67.23990788 76.93396469 68.83984002 76.94712067 70.43972206 C76.9642444 72.68238601 76.9622858 74.92428874 76.95581055 77.16699219 C76.96127899 79.0786895 76.96127899 79.0786895 76.96685791 81.02900696 C76.42906314 86.11101569 74.8395047 89.35457998 71.09936523 92.81420898 C66.90125966 95.64793025 63.6158116 95.63620252 58.65283203 95.6628418 C57.59861557 95.67028915 57.59861557 95.67028915 56.52310181 95.67788696 C54.19825256 95.69249023 51.87347156 95.69930785 49.54858398 95.70483398 C47.93056741 95.71058739 46.31255085 95.7163451 44.6945343 95.72210693 C41.30091027 95.732612 37.90730988 95.73845775 34.51367188 95.74194336 C30.17256743 95.74742404 25.83177727 95.77144486 21.49077129 95.79991531 C18.14753822 95.81857246 14.80438035 95.82374895 11.46109962 95.82527924 C9.86116634 95.82829986 8.2612342 95.83630844 6.66135216 95.84946442 C4.41868821 95.86658815 2.17678547 95.86462955 -0.06591797 95.8581543 C-1.97761528 95.86362274 -1.97761528 95.86362274 -3.92793274 95.86920166 C-9.00994147 95.33140689 -12.25350576 93.74184845 -15.71313477 90.00170898 C-18.54083903 85.81251749 -18.53921793 82.52378632 -18.57763672 77.57104492 C-18.58420792 76.86984024 -18.59077911 76.16863556 -18.59754944 75.44618225 C-18.61725518 73.12614835 -18.62893974 70.80617915 -18.63891602 68.48608398 C-18.64299154 67.69219521 -18.64706707 66.89830643 -18.6512661 66.08036041 C-18.67211659 61.87722535 -18.68642194 57.67412283 -18.69580078 53.47094727 C-18.70685499 49.13881468 -18.74124597 44.80719718 -18.78097248 40.47524643 C-18.80717266 37.13626173 -18.81549567 33.79739906 -18.81908226 30.45832062 C-18.82394052 28.86198707 -18.83553283 27.26565869 -18.85412025 25.66942596 C-18.8785825 23.42919121 -18.87753447 21.1902798 -18.87060547 18.94995117 C-18.87647171 17.67770691 -18.88233795 16.40546265 -18.88838196 15.09466553 C-18.21510745 10.13503461 -16.73668057 6.45873008 -12.8384304 3.19297314 C-8.62644687 0.51379872 -5.02049187 0.00066043 0 0 Z M12.59936523 31.50170898 C12.59936523 42.39170898 12.59936523 53.28170898 12.59936523 64.50170898 C23.48936523 64.50170898 34.37936523 64.50170898 45.59936523 64.50170898 C45.59936523 53.61170898 45.59936523 42.72170898 45.59936523 31.50170898 C34.70936523 31.50170898 23.81936523 31.50170898 12.59936523 31.50170898 Z " fill="#000000" transform="translate(363.400634765625,336.498291015625)"/>
<path d="M0 0 C1.05180702 -0.0098568 1.05180702 -0.0098568 2.12486267 -0.01991272 C4.44489657 -0.03961846 6.76486577 -0.05130302 9.08496094 -0.0612793 C9.87884972 -0.06535482 10.67273849 -0.06943035 11.49068451 -0.07362938 C15.69381957 -0.09447987 19.89692209 -0.10878522 24.10009766 -0.11816406 C28.43223024 -0.12921827 32.76384774 -0.16360925 37.09579849 -0.20333576 C40.43478319 -0.22953594 43.77364586 -0.23785895 47.1127243 -0.24144554 C48.70905785 -0.2463038 50.30538623 -0.25789611 51.90161896 -0.27648354 C54.14185372 -0.30094578 56.38076513 -0.29989775 58.62109375 -0.29296875 C59.89333801 -0.29883499 61.16558228 -0.30470123 62.47637939 -0.31074524 C67.43551927 0.36246261 71.11334398 1.8403547 74.37751389 5.73976421 C77.05039601 9.944575 77.57425955 13.55074028 77.58691406 18.56176758 C77.59392334 19.26355637 77.60093262 19.96534515 77.6081543 20.68840027 C77.62562807 22.98709768 77.61415084 25.28454404 77.60058594 27.58325195 C77.60328394 29.1931583 77.60716892 30.80306306 77.61218262 32.41296387 C77.61806324 35.77864169 77.60956155 39.1438934 77.59082031 42.50952148 C77.56803115 46.8102638 77.58116202 51.11000747 77.60511017 55.4107132 C77.61960735 58.73259928 77.61494433 62.05425103 77.604599 65.37614441 C77.60194251 66.9612795 77.60516333 68.5464363 77.61451721 70.13154602 C77.62474832 72.35234426 77.60909362 74.57155544 77.58691406 76.79223633 C77.58373169 78.05241577 77.58054932 79.31259521 77.57727051 80.61096191 C76.87452374 85.54471377 75.38932636 89.23283158 71.50731754 92.48598576 C67.29491024 95.16453559 63.68935449 95.67805049 58.66870117 95.67871094 C57.96530609 95.68411392 57.26191101 95.68951691 56.53720093 95.69508362 C54.23367012 95.70749632 51.93140752 95.6911332 49.62792969 95.6730957 C48.01562942 95.67325085 46.40332879 95.67474241 44.79103088 95.67750549 C41.42114665 95.67888608 38.0516898 95.66638771 34.68188477 95.64355469 C30.3722024 95.61514793 26.06322828 95.61791801 21.75349331 95.6306448 C18.42737322 95.63761374 15.10141558 95.62979926 11.77531624 95.61738777 C10.18657111 95.61288668 8.59780846 95.6125247 7.00906181 95.61645317 C4.78587202 95.61937804 2.56364408 95.60280004 0.34057617 95.58105469 C-1.55302391 95.57295021 -1.55302391 95.57295021 -3.48487854 95.56468201 C-8.54246255 94.99566097 -11.79658073 93.40303799 -15.24316406 89.67700195 C-18.07688532 85.47889638 -18.0651576 82.19344832 -18.09179688 77.23046875 C-18.09676178 76.52765778 -18.10172668 75.8248468 -18.10684204 75.10073853 C-18.12144531 72.77588928 -18.12826293 70.45110828 -18.13378906 68.1262207 C-18.13954247 66.50820413 -18.14530018 64.89018757 -18.15106201 63.27217102 C-18.16156708 59.87854698 -18.16741283 56.4849466 -18.17089844 53.09130859 C-18.17637912 48.75020415 -18.20039994 44.40941399 -18.22887039 40.06840801 C-18.24752754 36.72517494 -18.25270403 33.38201707 -18.25423431 30.03873634 C-18.25725493 28.43880306 -18.26526351 26.83887092 -18.27841949 25.23898888 C-18.29554323 22.99632493 -18.29358463 20.75442219 -18.28710938 18.51171875 C-18.290755 17.23725388 -18.29440063 15.962789 -18.29815674 14.64970398 C-17.76036197 9.56769525 -16.17080353 6.32413096 -12.43066406 2.86450195 C-8.24147256 0.03679769 -4.9527414 0.03841878 0 0 Z M13.06933594 31.17700195 C13.06933594 42.06700195 13.06933594 52.95700195 13.06933594 64.17700195 C23.95933594 64.17700195 34.84933594 64.17700195 46.06933594 64.17700195 C46.06933594 53.28700195 46.06933594 42.39700195 46.06933594 31.17700195 C35.17933594 31.17700195 24.28933594 31.17700195 13.06933594 31.17700195 Z " fill="#000000" transform="translate(89.9306640625,336.822998046875)"/>
<path d="M0 0 C4.37962299 2.18981149 7.39404749 4.84977934 10 9 C11.72102359 14.96621511 10.79585186 19.59344823 8 25 C4.69022973 29.14957754 0.95124113 32.82238378 -2.8359375 36.52734375 C-3.91935963 37.60718306 -5.00166796 38.68814089 -6.08291626 39.77015686 C-8.34170134 42.02427171 -10.61013317 44.26801762 -12.88671875 46.50415039 C-15.79956307 49.36587428 -18.69211195 52.24710638 -21.5783596 55.13562679 C-23.80802231 57.36447286 -26.04542408 59.58540898 -28.28551102 61.80377388 C-29.35496193 62.86370564 -30.42262964 63.92543987 -31.48844528 64.98902702 C-32.97890645 66.47296206 -34.47884346 67.94659677 -35.98193359 69.41772461 C-37.25742569 70.67606361 -37.25742569 70.67606361 -38.5586853 71.95982361 C-42.20267542 75.00506092 -45.65005304 76.28971215 -50.375 76.375 C-51.08398438 76.40335937 -51.79296875 76.43171875 -52.5234375 76.4609375 C-58.70746909 75.30996632 -63.49018557 70.98351384 -67.828125 66.67578125 C-68.34381042 66.17008102 -68.85949585 65.6643808 -69.39080811 65.14335632 C-70.47016143 64.07907874 -71.54558823 63.0108053 -72.6171875 61.9387207 C-74.24464585 60.31783253 -75.89460587 58.72249304 -77.546875 57.12695312 C-83.81399969 50.96260145 -88.92333241 45.55507878 -89.03125 36.328125 C-87.37940228 29.8664854 -84.59699902 26.73133268 -79 23 C-73.17192558 22.10204483 -67.64791825 21.91663238 -62.75 25.5 C-61.46520992 26.62824003 -60.21656871 27.79851272 -59 29 C-58.25234375 29.71929687 -57.5046875 30.43859375 -56.734375 31.1796875 C-54.78948647 33.09057448 -52.88224148 35.02765121 -51 37 C-47.97102391 35.64603754 -45.89960549 34.13789363 -43.58007812 31.77539062 C-42.9326062 31.12131226 -42.28513428 30.46723389 -41.61804199 29.79333496 C-40.92940063 29.08809692 -40.24075928 28.38285889 -39.53125 27.65625 C-38.813927 26.93135376 -38.096604 26.20645752 -37.35754395 25.45959473 C-35.06683716 23.14446702 -32.78267243 20.82304819 -30.5 18.5 C-27.49532649 15.44218003 -24.48415157 12.39098711 -21.46875 9.34375 C-20.43578796 8.28589294 -20.43578796 8.28589294 -19.38195801 7.20666504 C-18.73448608 6.55258667 -18.08701416 5.8985083 -17.41992188 5.22460938 C-16.57198059 4.36095764 -16.57198059 4.36095764 -15.70690918 3.4798584 C-10.97535859 -0.62230765 -6.01941367 -0.77147549 0 0 Z " fill="#000000" transform="translate(295,218)"/>
</svg>
