<?xml version="1.0" encoding="UTF-8"?>
<svg version="1.1" xmlns="http://www.w3.org/2000/svg" width="512" height="512">
<path d="M0 0 C0.73396474 -0.0060911 1.46792948 -0.01218221 2.22413558 -0.01845789 C4.66672991 -0.03501577 7.10879881 -0.03032255 9.55143738 -0.0255127 C11.30962665 -0.0328573 13.0678111 -0.04144467 14.82598877 -0.05117798 C19.59059939 -0.0733632 24.35503691 -0.0763261 29.11969209 -0.07443047 C33.10309747 -0.07431061 37.08646638 -0.08288106 41.06986159 -0.09120798 C50.47162263 -0.11043186 59.87329489 -0.11332981 69.27507019 -0.10656738 C78.95963685 -0.09992943 88.64382237 -0.12278344 98.32831174 -0.15988111 C106.65552643 -0.19061689 114.98261877 -0.20193387 123.30988902 -0.1980443 C128.27784407 -0.19598056 133.24550258 -0.20139785 138.2134037 -0.22593689 C142.88805081 -0.24826518 147.56208018 -0.2462758 152.23673058 -0.22600937 C153.94668944 -0.2226099 155.65669038 -0.22764239 157.36659241 -0.24199295 C167.66803129 -0.3224437 176.58745055 -0.03130507 184.52073383 7.38419342 C190.43772804 13.55123003 192.8549565 19.71386583 192.78019714 28.20983887 C192.78808258 29.33068123 192.78808258 29.33068123 192.79612732 30.47416687 C192.80923529 32.92175752 192.80062606 35.36868798 192.79045105 37.81628418 C192.79247359 39.52545292 192.79538652 41.23462082 192.79914856 42.94378662 C192.80355868 46.51448841 192.79718012 50.08496422 192.78312683 53.65563965 C192.76598358 58.23462137 192.77591665 62.81307752 192.79384422 67.39204025 C192.80467337 70.91617817 192.80124065 74.44019094 192.79346085 77.96433258 C192.79145911 79.65325228 192.79391718 81.34218333 192.80089951 83.03108978 C192.80850554 85.38655349 192.79692495 87.74115805 192.78019714 90.09655762 C192.78626984 90.79478134 192.79234253 91.49300507 192.79859924 92.21238708 C192.76153073 95.02511519 192.70502697 96.94215988 191.07868958 99.29193115 C188.20707206 101.16893371 185.77949683 101.3360043 182.39201355 101.39440918 C179.59011909 99.62799746 177.87676444 98.36391096 176.39201355 95.39440918 C176.2864381 93.17453535 176.24592363 90.95147853 176.23429871 88.72912598 C176.22921799 88.04436188 176.22413727 87.35959778 176.21890259 86.65408325 C176.20819292 85.16502351 176.19957508 83.67594762 176.19278336 82.18686485 C176.18100146 79.82869924 176.16154983 77.47071735 176.1396637 75.11262512 C176.07802911 68.4072177 176.02402928 61.70182806 175.99064636 54.99621582 C175.96968286 50.89591621 175.9343642 46.79594985 175.88988876 42.69584084 C175.87573932 41.13421366 175.8670087 39.57252751 175.86383438 38.01083946 C175.85891702 35.82283126 175.83573879 33.63570458 175.80851746 31.44787598 C175.8004306 30.20370407 175.79234375 28.95953217 175.78401184 27.67765808 C175.35460479 24.08108573 174.62629369 22.22509985 172.39201355 19.39440918 C169.67819699 17.57654265 167.49801923 17.13692827 164.26603699 17.07556152 C163.46550903 17.05569183 162.66498108 17.03582214 161.8401947 17.01535034 C160.98588867 17.00379913 160.13158264 16.99224792 159.25138855 16.98034668 C158.36920654 16.96098053 157.48702454 16.94161438 156.57810974 16.92166138 C153.76617539 16.8619807 150.95419985 16.81552634 148.14201355 16.76940918 C146.23314174 16.7312188 144.32428696 16.69216644 142.41545105 16.65222168 C137.74111059 16.5562886 133.06668946 16.47221502 128.39201355 16.39440918 C128.407724 17.26654053 128.42343445 18.13867188 128.43962097 19.03723145 C128.49102176 22.30063936 128.52849448 25.5636115 128.55680847 28.82727051 C128.57181232 30.23456652 128.59222218 31.64181642 128.61833191 33.0489502 C128.6550902 35.08218825 128.67182339 37.1148035 128.6849823 39.14831543 C128.70069275 40.36849365 128.7164032 41.58867188 128.73258972 42.8458252 C128.22713662 48.11232039 126.5314711 51.91981706 123.26701355 56.14440918 C115.62971688 62.12142396 106.81550553 61.83782601 97.48576355 61.79284668 C96.1658844 61.79571686 94.84600525 61.79858704 93.48612976 61.80154419 C90.70578859 61.80594145 87.92573856 61.79962137 85.14543152 61.78552246 C81.60509303 61.76843166 78.06543713 61.77828696 74.5251236 61.79623985 C71.11611747 61.80976825 67.70728898 61.80025987 64.29826355 61.79284668 C63.03864807 61.79891937 61.77903259 61.80499207 60.48124695 61.81124878 C52.93327052 61.75134522 45.32978493 61.59741525 39.23576355 56.64050293 C38.79232605 56.04366699 38.34888855 55.44683105 37.89201355 54.83190918 C37.42795105 54.23249512 36.96388855 53.63308105 36.48576355 53.01550293 C34.03972702 49.39012735 34.2636116 46.21881432 34.2943573 41.98034668 C34.29647972 40.8858873 34.29647972 40.8858873 34.29864502 39.76931763 C34.30424824 37.43597333 34.3168012 35.10272454 34.32951355 32.76940918 C34.33452814 31.1886814 34.33909112 29.60795211 34.34318542 28.02722168 C34.35421871 24.14958064 34.37148544 20.27201111 34.39201355 16.39440918 C29.07132349 16.46338038 23.75141221 16.55139279 18.43132019 16.65686035 C16.62248897 16.69006032 14.81355537 16.71810759 13.00456238 16.74084473 C10.40019722 16.77448176 7.79676595 16.82680113 5.1927948 16.88269043 C4.38739761 16.88908035 3.58200043 16.89547028 2.75219727 16.90205383 C-1.80729532 17.0207414 -4.95699307 17.37146055 -8.60798645 20.39440918 C-10.88869218 23.87058713 -10.86731884 26.89154056 -10.88645935 30.98760986 C-10.89514795 31.97891431 -10.89514795 31.97891431 -10.90401208 32.9902451 C-10.92100588 35.20281551 -10.92388799 37.41517724 -10.92683411 39.62780762 C-10.93613273 41.21458955 -10.9463013 42.80136659 -10.95727539 44.38813782 C-10.98459697 48.69560443 -10.99973119 53.00303829 -11.01270342 57.31056881 C-11.02832451 61.81228838 -11.05511799 66.313941 -11.08073425 70.81561279 C-11.12754014 79.34007775 -11.16427549 87.86455527 -11.19740713 96.38908315 C-11.23561572 106.09399029 -11.28502919 115.79883021 -11.33539128 125.50368071 C-11.43873805 145.46720724 -11.52798954 165.43077632 -11.60798645 185.39440918 C-10.04729683 185.38108551 -10.04729683 185.38108551 -8.45507812 185.36749268 C1.38653427 185.28613947 11.22807776 185.22631599 21.06995106 185.18716049 C26.12886465 185.16635296 31.18750514 185.13816111 36.2462616 185.09265137 C41.13516585 185.04894868 46.02380866 185.02522077 50.9128933 185.01490021 C52.77108051 185.00755245 54.62925464 184.99320476 56.48732948 184.97148895 C79.30278321 184.7156267 79.30278321 184.7156267 86.1706543 191.02960205 C86.57370285 191.4799884 86.9767514 191.93037476 87.39201355 192.39440918 C91.22590559 190.95669967 94.80765224 189.19610373 98.4271698 187.29675293 C102.76438098 185.30491241 106.70366122 185.2725764 111.45549011 185.28088379 C112.50975189 185.28066475 112.50975189 185.28066475 113.58531189 185.28044128 C115.90111918 185.28113619 118.21684536 185.28890879 120.53263855 185.29675293 C122.14117896 185.29861861 123.74971993 185.3000418 125.35826111 185.30104065 C129.58656897 185.30485402 133.81484234 185.31467423 138.0431366 185.32574463 C142.359945 185.33598412 146.67675899 185.34054371 150.99357605 185.34558105 C159.45973769 185.35629756 167.92587133 185.37335981 176.39201355 185.39440918 C176.38757233 184.66413513 176.3831311 183.93386108 176.3785553 183.18145752 C176.33846269 176.2955693 176.30802104 169.40969856 176.28838921 162.5237236 C176.27795694 158.98366054 176.26380801 155.44369402 176.24113464 151.90368652 C176.21522504 147.83287637 176.20553617 143.76216746 176.19670105 139.69128418 C176.18637848 138.42137634 176.17605591 137.15146851 176.16542053 135.84307861 C176.16526947 134.66215637 176.16511841 133.48123413 176.16496277 132.26452637 C176.16052155 131.22528015 176.15608032 130.18603394 176.15150452 129.11529541 C176.39693722 126.33870755 176.90614539 124.7297307 178.39201355 122.39440918 C181.08789158 120.29761515 182.48495755 120.39930097 185.95451355 120.58190918 C190.41214298 121.63553068 190.41214298 121.63553068 192.39201355 124.39440918 C192.7527771 127.07096863 192.7527771 127.07096863 192.73258972 130.33459473 C192.73236313 131.555634 192.73213654 132.77667328 192.73190308 134.03471375 C192.71641922 135.35353043 192.70093536 136.67234711 192.6849823 138.03112793 C192.67938598 139.39447056 192.67511605 140.75781922 192.67211914 142.12117004 C192.66067304 145.7068451 192.63120841 149.29215472 192.5980072 152.87768555 C192.56730094 156.53750668 192.55361265 160.19738695 192.53849792 163.8572998 C192.50633804 171.03650274 192.45514508 178.21540472 192.39201355 185.39440918 C193.4494426 185.38774734 194.50687164 185.38108551 195.59634399 185.3742218 C205.58576957 185.31327571 215.57515717 185.26837185 225.56472683 185.23897266 C230.69986183 185.22334989 235.83484612 185.20217368 240.96989441 185.16809082 C245.93009983 185.13537633 250.89016075 185.1175307 255.85046577 185.10977745 C257.7381982 185.1042556 259.62592315 185.09347293 261.51359367 185.07721901 C264.16781781 185.05528382 266.82145288 185.05244893 269.47575378 185.05383301 C270.24755981 185.04304718 271.01936584 185.03226135 271.81455994 185.02114868 C279.7432099 185.06557555 286.73734869 187.07571796 292.70451355 192.45690918 C293.50502136 193.14913574 294.30552917 193.8413623 295.1302948 194.55456543 C302.0525439 203.24623226 301.95136953 212.86582464 301.84611511 223.49255371 C301.84498496 225.09991935 301.84562376 226.70728705 301.84788513 228.31465149 C301.84902669 232.65088174 301.82560859 236.98666394 301.7975893 241.32279062 C301.77248189 245.86445209 301.77022632 250.4061253 301.76548767 254.94784546 C301.75308523 263.53598291 301.72030081 272.12391522 301.68008971 280.71196258 C301.63528671 290.49432516 301.61336356 300.27669785 301.59330797 310.05913758 C301.5515656 330.17100901 301.48126696 350.28269614 301.39201355 370.39440918 C302.62467957 370.38570801 303.85734558 370.37700684 305.12736511 370.36804199 C306.7624554 370.3610043 308.39754662 370.35417961 310.03263855 370.34753418 C310.84297546 370.34125 311.65331238 370.33496582 312.48820496 370.32849121 C321.03678468 370.30245493 328.60596357 370.66396697 335.39201355 376.39440918 C341.76552756 382.82182183 344.67229595 387.43405579 344.76701355 396.70690918 C344.71331919 406.15711664 341.97323301 411.21839613 335.4662323 417.85144043 C329.98969176 421.92532652 324.81766933 422.83546978 318.11915684 422.77472591 C317.30981083 422.77938583 316.50046481 422.78404575 315.66659316 422.78884688 C312.9553178 422.80079515 310.24454369 422.79140212 307.53326416 422.78208923 C305.56951624 422.78626222 303.60577073 422.79173954 301.6420297 422.79840904 C296.24609295 422.81288692 290.85030864 422.80861158 285.45436347 422.80124223 C279.63490521 422.79651869 273.81548033 422.80901318 267.99603271 422.81925964 C256.5955614 422.83646874 245.19514515 422.8372833 233.79466421 422.83204674 C224.53001904 422.82800787 215.26539016 422.82944523 206.00074577 422.834795 C204.68293204 422.83554342 203.3651183 422.83629184 202.00737081 422.83706294 C200.00149003 422.83820814 197.99560925 422.83935801 195.98972848 422.84052219 C177.34098805 422.85122717 158.69225366 422.85595242 140.04351139 422.84805202 C139.34053377 422.84775485 138.63755614 422.84745768 137.91327617 422.8471515 C132.20459175 422.84470256 126.49590741 422.84209098 120.78722307 422.83946737 C98.51816952 422.82936432 76.24919136 422.83772142 53.98014832 422.86096191 C28.95999372 422.88703129 3.93988451 422.89988337 -21.08028418 422.89277416 C-34.32782683 422.88921805 -47.5753102 422.89154102 -60.82284355 422.90902519 C-72.09972773 422.92372369 -83.37650638 422.92441336 -94.65338843 422.90695428 C-100.40827652 422.89842271 -106.1629759 422.89634743 -111.91785431 422.91160583 C-117.185038 422.92539845 -122.45187034 422.92075968 -127.71903343 422.9013666 C-129.62541317 422.8975896 -131.53182068 422.90057721 -133.43817579 422.91097825 C-136.02897079 422.92410947 -138.61854623 422.91259981 -141.2092886 422.89498043 C-141.94993999 422.90463094 -142.69059137 422.91428145 -143.45368674 422.92422441 C-150.44195123 422.82659911 -156.50056047 420.09760014 -161.42048645 415.08190918 C-167.76555941 408.17186397 -168.16989722 402.2184478 -167.95173645 392.99206543 C-167.23940032 385.53682022 -163.84709017 380.90633143 -158.4634552 375.86706543 C-150.98443963 369.93108886 -141.7301893 370.24234558 -132.67048645 370.33190918 C-131.79585754 370.3364209 -130.92122864 370.34093262 -130.02009583 370.34558105 C-127.88269598 370.35726084 -125.74533182 370.37519229 -123.60798645 370.39440918 C-123.61259542 369.55841501 -123.61720438 368.72242085 -123.62195301 367.86109352 C-123.73249842 347.49535632 -123.81517523 327.12967102 -123.86704731 306.76369667 C-123.8928007 296.91474236 -123.92789637 287.06598863 -123.98518372 277.21716309 C-124.03510649 268.63034024 -124.06729828 260.04366272 -124.07842892 251.45669878 C-124.08493269 246.91222982 -124.10015828 242.3681765 -124.13663673 237.82384109 C-124.1707367 233.54084783 -124.18101139 229.25843886 -124.17352486 224.97532272 C-124.17489318 223.40885994 -124.18474229 221.84237632 -124.20401382 220.27603149 C-124.32586488 209.85549337 -123.21231927 202.03219626 -116.46736145 193.77331543 C-115.7712677 193.17390137 -115.07517395 192.5744873 -114.35798645 191.95690918 C-113.6722052 191.33944824 -112.98642395 190.7219873 -112.27986145 190.08581543 C-103.3485299 184.43191695 -93.90109328 184.99809753 -83.7603302 185.10144043 C-82.13651931 185.1070449 -80.5127033 185.11131097 -78.8888855 185.11430359 C-74.64243742 185.12568545 -70.39630366 185.15509414 -66.14997864 185.18841553 C-61.80594635 185.21926109 -57.46186262 185.2328397 -53.11775208 185.2479248 C-44.61435361 185.2799712 -36.11120928 185.33108553 -27.60798645 185.39440918 C-27.6148999 184.13268733 -27.6148999 184.13268733 -27.62195301 182.84547615 C-27.73249652 162.35456055 -27.81517431 141.86369653 -27.86704731 121.37254524 C-27.89280113 111.46305745 -27.92789763 101.553769 -27.98518372 91.64440918 C-28.03510517 83.00484863 -28.06729797 74.36543251 -28.07842892 65.72573173 C-28.08493291 61.15331823 -28.10015994 56.5813178 -28.13663673 52.00903702 C-28.17073458 47.69977986 -28.18101181 43.39110343 -28.17352486 39.08172417 C-28.17489328 37.50558624 -28.18474363 35.92942762 -28.20401382 34.35340691 C-28.32037269 24.34045878 -27.74044269 15.89747784 -20.61801624 8.26074409 C-14.45838537 2.36643024 -8.48490673 0.024189 0 0 Z M50.39201355 16.39440918 C50.39201355 25.63440918 50.39201355 34.87440918 50.39201355 44.39440918 C58.3209167 44.41535433 66.2497202 44.43539246 74.17862701 44.44615936 C77.87061745 44.4514492 81.5625851 44.45852292 85.25456238 44.46984863 C88.80772186 44.4806808 92.36085918 44.48668671 95.91403389 44.48928642 C97.27247021 44.49114008 98.63090526 44.49475956 99.9893322 44.50013924 C101.88583578 44.50735393 103.78236148 44.50781727 105.67887878 44.50793457 C107.30103554 44.51126549 107.30103554 44.51126549 108.95596313 44.5146637 C111.33998827 44.67022888 111.33998827 44.67022888 112.39201355 43.39440918 C112.39201355 34.48440918 112.39201355 25.57440918 112.39201355 16.39440918 C91.93201355 16.39440918 71.47201355 16.39440918 50.39201355 16.39440918 Z M-105.74799728 206.58695507 C-108.03599753 210.04044599 -108.10184502 211.98927148 -108.08900452 216.10786438 C-108.09413107 217.10045046 -108.09413107 217.10045046 -108.09936118 218.11308879 C-108.10593226 220.322949 -108.08397909 222.53158537 -108.06208801 224.74133301 C-108.06095936 226.32825695 -108.06159375 227.91518298 -108.06385803 229.50210571 C-108.06500541 233.80557469 -108.04149243 238.10859745 -108.0135622 242.41196275 C-107.98855245 246.91094591 -107.98620689 251.40993937 -107.98146057 255.90898132 C-107.96902954 264.42645357 -107.93620621 272.94372039 -107.89606261 281.46110219 C-107.85134887 291.15870715 -107.82935886 300.85632193 -107.80928087 310.55400431 C-107.76747369 330.50092058 -107.69711914 350.44765194 -107.60798645 370.39440918 C-106.70453995 370.40027542 -105.80109344 370.40614166 -104.87026978 370.41218567 C-96.35100532 370.4701189 -87.83200286 370.54219932 -79.31299305 370.63012409 C-74.93339698 370.67482818 -70.55389394 370.71408416 -66.17414856 370.74084473 C-61.94645886 370.76687743 -57.71912715 370.8072794 -53.49165916 370.85759544 C-51.87979781 370.87426442 -50.26787454 370.88577852 -48.6559391 370.89202309 C-46.39584053 370.90166409 -44.13665783 370.92972168 -41.87678528 370.96203613 C-39.94818413 370.97869072 -39.94818413 370.97869072 -37.98062134 370.99568176 C-34.36015342 371.42370907 -32.4389589 372.11950848 -29.60798645 374.39440918 C-28.60901716 378.31893138 -28.22161508 381.5433776 -29.60798645 385.39440918 C-32.92515606 386.13555069 -35.99297803 386.52042219 -39.38960266 386.52571106 C-40.32322128 386.52971924 -41.2568399 386.53372742 -42.21875 386.53785706 C-43.73690056 386.53706398 -43.73690056 386.53706398 -45.28572083 386.53625488 C-46.36106583 386.53972931 -47.43641083 386.54320374 -48.54434204 386.54678345 C-50.87640874 386.55412767 -53.20848237 386.55948015 -55.54055786 386.56307411 C-59.23053143 386.5702464 -62.92037256 386.58591733 -66.61030579 386.60441589 C-77.10056282 386.65686085 -87.59074553 386.7048945 -98.08113098 386.72033691 C-104.49960683 386.73040463 -110.9177468 386.759694 -117.33609009 386.80165672 C-119.78250593 386.8139839 -122.22896915 386.81908487 -124.67541504 386.81685829 C-128.09406057 386.81451168 -131.51173726 386.83662287 -134.93025208 386.86437988 C-136.44840263 386.85447777 -136.44840263 386.85447777 -137.9972229 386.84437561 C-142.39028568 386.90304108 -144.90614458 386.9630841 -148.71284485 389.30253601 C-151.18702707 392.03355906 -151.56872521 392.97824 -151.92048645 396.70690918 C-151.55922703 400.96977028 -150.58806591 402.41432972 -147.60798645 405.39440918 C-144.5660326 406.9153861 -141.40412481 406.53528368 -138.06692791 406.52863026 C-137.27595932 406.53098249 -136.48499073 406.53333472 -135.67005339 406.53575823 C-132.99136649 406.54247157 -130.31272783 406.5419893 -127.6340332 406.5415802 C-125.70546323 406.54487737 -123.77689395 406.54860262 -121.84832555 406.55272168 C-116.52655974 406.56276643 -111.2048052 406.56646243 -105.88303125 406.56911099 C-100.15216933 406.57300668 -94.4213164 406.58258545 -88.69046021 406.59132385 C-74.84020603 406.61110826 -60.9899511 406.62115661 -47.13968632 406.63005164 C-40.62370551 406.63443098 -34.10772553 406.63979867 -27.59174538 406.64504051 C-5.94247043 406.66205415 15.70680336 406.67657471 37.35608387 406.68378925 C38.75660308 406.68426401 40.15712228 406.6847399 41.55764149 406.68521691 C42.25218653 406.68545329 42.94673157 406.68568967 43.66232343 406.68593321 C47.181351 406.68713443 50.70037857 406.68834987 54.21940613 406.6895752 C55.26695635 406.68993542 55.26695635 406.68993542 56.3356692 406.69030292 C78.98622607 406.69819856 101.63673063 406.7216355 124.28726465 406.75413114 C148.22334225 406.78840853 172.1593857 406.80813727 196.09548873 406.81143349 C209.14795969 406.81360235 222.20035375 406.82240585 235.2528019 406.84789467 C246.36555867 406.86954505 257.47821988 406.87768005 268.59099535 406.86792789 C274.26447492 406.86336683 279.93775707 406.86537389 285.61120987 406.88468933 C290.80070768 406.90220515 295.98986235 406.90141812 301.17936321 406.88579204 C303.06094531 406.88339826 304.94255046 406.88783021 306.82409713 406.89962069 C309.3742977 406.91461669 311.923263 406.90515334 314.47343159 406.88939381 C315.21055849 406.89961601 315.94768539 406.90983822 316.70714948 406.92037019 C321.53732219 406.85484895 324.00221405 405.82761402 327.39201355 402.39440918 C328.94225819 399.2939199 328.6819337 396.815467 328.39201355 393.39440918 C326.5963895 390.64111897 325.33946433 388.86813457 322.39201355 387.39440918 C320.63009573 387.29697103 318.86446415 387.26416238 317.09985638 387.2613306 C315.97033761 387.25708956 314.84081884 387.25284851 313.67707223 387.24847895 C312.42564126 387.24886508 311.17421029 387.24925121 309.88485718 387.24964905 C308.55025813 387.24651688 307.21566007 387.24294245 305.88106328 387.23896164 C302.20112363 387.22923907 298.5211995 387.22570917 294.84124887 387.22311866 C290.87727192 387.21923206 286.91330879 387.20959438 282.94934082 387.20056152 C276.07619698 387.18560654 269.20305424 387.17406933 262.32990074 387.16461372 C252.38693529 387.15075647 242.44399538 387.12957098 232.50104824 387.10618519 C216.36339102 387.06824473 200.22572916 387.03328487 184.08805847 387.00158691 C183.12154184 386.99968642 182.15502521 386.99778593 181.1592202 386.99582785 C167.44387176 386.96899773 153.72851975 386.94512441 140.0131639 386.92244285 C139.04755684 386.92084554 138.08194979 386.91924824 137.08708191 386.91760254 C135.64043075 386.91521234 135.64043075 386.91521234 134.16455432 386.91277386 C118.09228168 386.88602016 102.02003622 386.85162617 85.94779283 386.81094879 C76.02851619 386.78615236 66.10926881 386.76783764 56.18996606 386.75779318 C49.39378285 386.75041008 42.5976389 386.73589581 35.80148169 386.71572895 C31.87789199 386.70432178 27.95436567 386.69620444 24.0307579 386.69673729 C20.44007905 386.69716431 16.84954289 386.68847588 13.25890068 386.67248749 C11.34200523 386.66635106 9.42508612 386.67005285 7.50818509 386.67408282 C6.37084308 386.66723402 5.23350107 386.66038523 4.06169415 386.6533289 C3.0804418 386.65159265 2.09918945 386.6498564 1.08820218 386.64806753 C-2.08249044 386.34976768 -5.28170029 385.72069534 -7.60798645 383.39440918 C-7.7759552 381.39831543 -7.7759552 381.39831543 -7.79548645 378.95690918 C-7.80966614 378.15382324 -7.82384583 377.3507373 -7.8384552 376.52331543 C-7.60798645 374.39440918 -7.60798645 374.39440918 -5.60798645 372.39440918 C-1.77834684 370.95274241 2.3365512 371.21996797 6.37345886 371.18908691 C7.17383575 371.17918732 7.97421265 371.16928772 8.79884338 371.15908813 C11.43924521 371.12754976 14.07966502 371.10274605 16.72013855 371.07800293 C18.55288658 371.05742678 20.38562994 371.03643014 22.21836853 371.01502991 C27.03845937 370.95987747 31.85859255 370.9104381 36.67875671 370.86218262 C41.59883892 370.81191772 46.51885976 370.7562577 51.43888855 370.7010498 C61.08987777 370.59355175 70.74092031 370.49208825 80.39201355 370.39440918 C80.50881793 349.50630904 80.59698758 328.61826275 80.65107441 307.72990227 C80.67685546 298.03104612 80.71200411 288.33239289 80.76921082 278.63366699 C80.81904879 270.18019193 80.85130529 261.72686383 80.86245602 253.27324593 C80.86897413 248.79708992 80.88429129 244.32135435 80.92066383 239.8453331 C80.95462968 235.63129486 80.96506544 231.41784979 80.95755196 227.20368767 C80.95892625 225.6581201 80.96885573 224.11253246 80.98804092 222.56708336 C81.4696753 213.51344497 81.4696753 213.51344497 77.99794006 205.51330566 C72.6597812 201.17281257 68.21423404 201.11421135 61.5912323 201.19909668 C60.75485733 201.20192657 59.91848236 201.20475647 59.0567627 201.20767212 C56.39753129 201.21882597 53.73864237 201.24392155 51.07951355 201.26940918 C49.27157572 201.27944519 47.46363259 201.28856995 45.65568542 201.29675293 C41.23433043 201.31874959 36.81322997 201.35324624 32.39201355 201.39440918 C32.37743103 202.2968335 32.36284851 203.19925781 32.3478241 204.12902832 C32.28645778 207.50460924 32.21225026 210.87941614 32.12956238 214.2545166 C32.09648372 215.71013912 32.06839958 217.16588464 32.045578 218.6217041 C32.01171434 220.72485354 31.95938995 222.82689293 31.9037323 224.92956543 C31.87754822 226.19163818 31.85136414 227.45371094 31.8243866 228.75402832 C31.2688233 233.43161404 30.03004434 237.49190467 26.89201355 241.13659668 C22.03567992 244.80414031 18.94128067 245.52119523 12.936203 245.57141113 C12.28537247 245.57798233 11.63454193 245.58455353 10.96398926 245.59132385 C8.81108984 245.61102466 6.6582602 245.62271427 4.5052948 245.63269043 C3.39907807 245.63880372 3.39907807 245.63880372 2.27051353 245.64504051 C-1.6355168 245.66589093 -5.54151214 245.68019516 -9.44758606 245.6895752 C-13.46800002 245.70061723 -17.48785709 245.73499384 -21.50807476 245.77474689 C-24.61119564 245.80098739 -27.71418555 245.80927373 -30.81740761 245.81285667 C-32.29848286 245.81770615 -33.77955291 245.82927315 -35.26051903 245.84789467 C-51.29843018 246.03696458 -51.29843018 246.03696458 -56.60798645 241.39440918 C-60.4737282 236.9370437 -61.20696515 232.29426366 -61.21736145 226.49206543 C-61.23389771 225.76950058 -61.25043396 225.04693573 -61.26747131 224.30247498 C-61.31561211 222.02053038 -61.33724447 219.73925029 -61.35798645 217.45690918 C-61.38617484 215.89893364 -61.41610625 214.34098861 -61.4478302 212.78308105 C-61.5213605 208.98691193 -61.57114075 205.19110436 -61.60798645 201.39440918 C-66.62504366 201.31998912 -71.64177617 201.2656801 -76.65925598 201.22961426 C-78.36439108 201.2145718 -80.06948777 201.19413265 -81.77449036 201.16809082 C-84.23210657 201.13150634 -86.68920914 201.11463745 -89.14704895 201.10144043 C-90.28178146 201.07821465 -90.28178146 201.07821465 -91.43943787 201.05451965 C-97.36723124 201.05265486 -101.46636705 202.20021524 -105.74799728 206.58695507 Z M-45.60798645 201.39440918 C-45.60798645 210.96440918 -45.60798645 220.53440918 -45.60798645 230.39440918 C-37.6790833 230.41535433 -29.7502798 230.43539246 -21.82137299 230.44615936 C-18.12938255 230.4514492 -14.4374149 230.45852292 -10.74543762 230.46984863 C-7.19227814 230.4806808 -3.63914082 230.48668671 -0.08596611 230.48928642 C1.27247021 230.49114008 2.63090526 230.49475956 3.9893322 230.50013924 C5.88583578 230.50735393 7.78236148 230.50781727 9.67887878 230.50793457 C11.30103554 230.51126549 11.30103554 230.51126549 12.95596313 230.5146637 C15.33998827 230.67022888 15.33998827 230.67022888 16.39201355 229.39440918 C16.39201355 220.15440918 16.39201355 210.91440918 16.39201355 201.39440918 C-4.06798645 201.39440918 -24.52798645 201.39440918 -45.60798645 201.39440918 Z M98.57951355 207.33190918 C96.13548159 211.57680679 96.26790219 216.12398559 96.27175903 220.91804504 C96.27038154 222.23479123 96.26900404 223.55153742 96.2675848 224.90818501 C96.27113123 226.36623976 96.27476912 227.8242943 96.27848816 229.28234863 C96.2787946 230.84487754 96.27866082 232.40740658 96.2781229 233.96993542 C96.27789733 238.15068155 96.28368922 242.331399 96.29073334 246.51213837 C96.29643226 250.43655995 96.29669668 254.3609746 96.29740906 258.28540039 C96.3026544 269.75924045 96.31661557 281.23307518 96.32951355 292.70690918 C96.35013855 318.34378418 96.37076355 343.98065918 96.39201355 370.39440918 C158.76201355 370.39440918 221.13201355 370.39440918 285.39201355 370.39440918 C285.47451355 344.11815918 285.55701355 317.84190918 285.64201355 290.76940918 C285.67842957 282.4709082 285.71484558 274.17240723 285.75236511 265.62243652 C285.76574239 258.18733547 285.76574239 258.18733547 285.77378845 250.75222778 C285.77751693 247.43904926 285.79251381 244.12612679 285.8143158 240.8130188 C285.84176295 236.58602266 285.84997637 232.35939858 285.84430265 228.1323216 C285.84548896 226.5815775 285.85341503 225.03082034 285.86887407 223.48015285 C285.88880866 221.38301817 285.88396274 219.28732365 285.87303162 217.19015503 C285.87856237 215.42860864 285.87856237 215.42860864 285.88420486 213.63147545 C285.28150669 209.66762264 283.86907257 207.51208463 281.39201355 204.39440918 C276.51026336 201.02974449 272.20127811 200.99100145 266.49357605 201.10144043 C265.24113602 201.10780769 265.24113602 201.10780769 263.96339417 201.11430359 C261.3142632 201.13100585 258.66591195 201.16864143 256.01701355 201.20690918 C254.21363917 201.22196698 252.41025279 201.23565347 250.6068573 201.2479248 C246.20161205 201.28088156 241.79694469 201.33260449 237.39201355 201.39440918 C237.37743103 202.26130371 237.36284851 203.12819824 237.3478241 204.0213623 C237.28636343 207.27204525 237.21213732 210.52212895 237.12956238 213.77233887 C237.09653688 215.17261988 237.068437 216.57302687 237.045578 217.97351074 C236.74776146 235.74111867 236.74776146 235.74111867 231.97673035 240.93518066 C227.36361009 245.00106589 223.80806984 245.52309946 217.84440613 245.58728027 C216.85352997 245.59954651 216.85352997 245.59954651 215.84263611 245.61206055 C213.65728142 245.63686263 211.47199161 245.65341995 209.2865448 245.66784668 C208.16377923 245.6758322 208.16377923 245.6758322 207.01833153 245.68397903 C203.05395406 245.71069216 199.08960784 245.73007013 195.12516785 245.74450684 C191.85339787 245.75782718 188.58225439 245.78564588 185.31071472 245.82653809 C181.35197771 245.87601369 177.39380735 245.90064614 173.4347744 245.90773392 C171.93134562 245.91442212 170.42792828 245.92958066 168.9246769 245.95362473 C153.49880065 246.18621782 153.49880065 246.18621782 147.39201355 240.39440918 C143.25796926 235.19351476 143.28202637 229.11195125 143.0756073 222.68347168 C143.03371277 221.43952637 142.99181824 220.19558105 142.94865417 218.91394043 C142.90933777 217.62874512 142.87002136 216.3435498 142.82951355 215.01940918 C142.78632996 213.71101074 142.74314636 212.4026123 142.69865417 211.05456543 C142.59288926 207.83461121 142.49079776 204.61458387 142.39201355 201.39440918 C137.37498176 201.29518293 132.35852703 201.22277331 127.34074402 201.17468262 C125.63556461 201.15462549 123.93045349 201.12737261 122.22550964 201.09265137 C119.76781831 201.04387057 117.31103988 201.02138199 114.85295105 201.00378418 C113.71821854 200.97281647 113.71821854 200.97281647 112.56056213 200.94122314 C106.49528553 200.93867909 102.79806185 202.82242652 98.57951355 207.33190918 Z M159.39201355 201.39440918 C159.39201355 210.96440918 159.39201355 220.53440918 159.39201355 230.39440918 C179.52201355 230.39440918 199.65201355 230.39440918 220.39201355 230.39440918 C224.71764774 221.74314081 221.39201355 211.06682127 221.39201355 201.39440918 C200.93201355 201.39440918 180.47201355 201.39440918 159.39201355 201.39440918 Z " fill="#000000" transform="translate(167.6079864501953,44.6055908203125)"/>
</svg>
