<?xml version="1.0" encoding="UTF-8"?>
<svg version="1.1" xmlns="http://www.w3.org/2000/svg" width="512" height="512">
<path d="M0 0 C1.57748721 -0.00577144 3.15496768 -0.01371938 4.73243427 -0.02363622 C9.03774158 -0.04439272 13.34249044 -0.03424584 17.64779902 -0.01870513 C22.30229517 -0.00734936 26.95669815 -0.02487521 31.61117554 -0.03860474 C40.71763575 -0.06079671 49.82388951 -0.05605398 58.93035769 -0.04154153 C66.33368542 -0.03023337 73.73695542 -0.02872521 81.14028931 -0.03416061 C82.19538675 -0.03492678 83.25048419 -0.03569294 84.33755428 -0.03648233 C86.48120111 -0.03808101 88.62484793 -0.03970208 90.76849473 -0.04134528 C110.85282765 -0.05559095 130.93704633 -0.0392286 151.02136052 -0.01234345 C168.2414297 0.00999423 185.46133034 0.00611377 202.68139648 -0.01693726 C222.69558962 -0.04371613 242.70968271 -0.05421776 262.72389126 -0.03887594 C264.85949642 -0.03728325 266.9951016 -0.0357114 269.13070679 -0.03416061 C270.18136851 -0.03338924 271.23203024 -0.03261786 272.31453019 -0.03182311 C279.70593729 -0.02751238 287.09728074 -0.03477914 294.48867798 -0.04655838 C303.50069952 -0.0606051 312.51250341 -0.05673776 321.52450013 -0.03015466 C326.11949655 -0.01704573 330.71413054 -0.01181404 335.30912399 -0.02840042 C339.52108855 -0.04337386 343.73235704 -0.03499104 347.94425905 -0.00851266 C349.46226646 -0.00295884 350.98033351 -0.005698 352.4983021 -0.0178916 C366.10197348 -0.11872707 377.11198328 3.09061531 387.13549805 12.63491821 C398.11266302 24.21357167 398.85506051 37.29096285 398.703125 52.3565979 C398.7017124 54.32878585 398.70251065 56.30097642 398.70533752 58.27316284 C398.7067648 63.59483053 398.67748687 68.91592808 398.64246774 74.23746395 C398.61108896 79.81077578 398.60826443 85.38410247 398.6023407 90.95748901 C398.58683604 101.49700651 398.54585334 112.03626289 398.49559325 122.57566571 C398.43959451 134.5805154 398.41218682 146.58537793 398.38711607 158.59032583 C398.33493447 183.27200598 398.24604402 207.9534364 398.13549805 232.63491821 C392.52549805 232.63491821 386.91549805 232.63491821 381.13549805 232.63491821 C381.12669868 229.0192263 381.12669868 229.0192263 381.11772156 225.33049011 C381.06105317 202.62621183 380.98797264 179.92202874 380.89978313 157.21785069 C380.85483735 145.54511481 380.81541981 133.87240935 380.7890625 122.19961548 C380.76607264 112.02438869 380.73266342 101.84925829 380.68679649 91.67410797 C380.66287774 86.28755673 380.64414007 80.90110087 380.63788414 75.51449776 C380.63182727 70.44114282 380.61180535 65.36803191 380.58122253 60.29476738 C380.57245202 58.43606131 380.56871768 56.57732333 380.57048988 54.71859741 C380.71448997 39.8330307 380.71448997 39.8330307 374.94799805 26.32241821 C368.81208843 20.45921569 362.22292193 18.51402192 353.87440205 18.50069714 C352.57964838 18.49623929 351.28489472 18.49178145 349.9509061 18.48718852 C348.51075319 18.48727781 347.07060028 18.48746766 345.63044739 18.48774719 C344.10310751 18.48444777 342.57576851 18.48072203 341.04843062 18.47660571 C336.84485834 18.46658667 332.64130033 18.46286908 328.4377178 18.4602164 C323.90655178 18.45631311 319.37539708 18.44673484 314.84423828 18.43800354 C303.89879188 18.41824065 292.95334455 18.4081735 282.00788477 18.39927575 C276.85422631 18.39489288 271.70056888 18.3895261 266.54691124 18.38428688 C249.41664372 18.36727538 232.28637685 18.35278071 215.15610218 18.34553814 C210.71067618 18.34362823 206.26525019 18.3417079 201.81982422 18.3397522 C200.71492894 18.33926846 199.61003366 18.33878472 198.4716567 18.33828632 C180.56891409 18.32998415 162.66623825 18.30464373 144.76352481 18.27217152 C126.3859617 18.23910956 108.00843254 18.22109019 89.63083953 18.2178939 C79.31134919 18.21572809 68.99195625 18.20696894 58.67249489 18.18143272 C49.88495252 18.1597376 41.09753122 18.1516695 32.30996511 18.16139951 C27.82681278 18.16594754 23.3439103 18.16402873 18.86079216 18.14463806 C14.75424967 18.12702963 10.64813974 18.12798511 6.5415928 18.14353535 C5.05838048 18.14591495 3.5751384 18.14156956 2.09197161 18.1297067 C-7.73219946 18.05601567 -14.37544867 19.21950728 -22.67700195 24.38491821 C-27.91296852 29.77048383 -29.98775036 36.4120788 -29.99592972 43.79137707 C-29.99977086 45.08823978 -30.00361201 46.38510249 -30.00756955 47.72126406 C-30.00678926 49.16897855 -30.00591046 50.61669298 -30.00494385 52.06440735 C-30.00752667 53.59572147 -30.01053959 55.12703492 -30.01394725 56.65834743 C-30.0220304 60.8775133 -30.02380755 65.09666218 -30.02454472 69.31583488 C-30.02639301 73.86199456 -30.03393925 78.40814536 -30.04067993 82.95429993 C-30.05427351 92.900622 -30.06028968 102.84694005 -30.06469059 112.79326987 C-30.0674515 119.00209689 -30.0716886 125.21092234 -30.07619476 131.41974831 C-30.08838918 148.60487998 -30.09868788 165.79001039 -30.10206985 182.97514629 C-30.10228942 184.07547982 -30.10250899 185.17581335 -30.10273521 186.30949031 C-30.10295348 187.41248299 -30.10317176 188.51547567 -30.10339665 189.65189236 C-30.10384012 191.88703835 -30.10428669 194.12218434 -30.10473633 196.35733032 C-30.10495776 197.46604403 -30.10517919 198.57475774 -30.10540733 199.71706883 C-30.10935528 217.68196935 -30.12680843 235.6468293 -30.15009585 253.61171415 C-30.17380316 272.0491317 -30.18627144 290.48652889 -30.18743777 308.92396194 C-30.18835493 319.27862717 -30.19411733 329.63323956 -30.21225739 339.98789024 C-30.22765004 348.80548263 -30.23278379 357.62300585 -30.22451928 366.44060912 C-30.22060971 370.93979019 -30.22155732 375.43883194 -30.23557663 379.93799591 C-30.24829719 384.05803459 -30.2471343 388.17782902 -30.23498592 392.29786728 C-30.23302571 393.78714525 -30.23612233 395.27644042 -30.24483028 396.76569422 C-30.29606437 406.12136509 -30.05527277 413.02602703 -24.61450195 420.88491821 C-17.85797219 427.64144798 -11.33603974 428.78235238 -2.06939697 428.7931366 C-0.72282347 428.80054356 -0.72282347 428.80054356 0.65095353 428.80810016 C3.66500556 428.82348255 6.67903626 428.83183782 9.69311523 428.84024048 C11.85131519 428.84981842 14.00951326 428.85982845 16.16770935 428.87023926 C22.0329759 428.89730349 27.89825051 428.91830486 33.76354504 428.93824124 C39.89081991 428.9600914 46.0180699 428.98748484 52.14532471 429.01429749 C63.75099037 429.06423748 75.35666984 429.10917148 86.96236253 429.15231985 C100.1738286 429.20168104 113.38526971 429.25660332 126.59671164 429.31199944 C153.77628399 429.42583956 180.95588055 429.53247694 208.13549805 429.63491821 C208.13549805 435.57491821 208.13549805 441.51491821 208.13549805 447.63491821 C180.31023489 447.68125617 152.48498105 447.716928 124.65968704 447.73854256 C111.73933853 447.74884622 98.81901446 447.76288919 85.89868164 447.78579712 C74.63466937 447.80575882 63.37067481 447.81864126 52.10664535 447.8230952 C46.14486864 447.82569786 40.18314258 447.83179636 34.22138214 447.84637833 C28.60393618 447.86000613 22.98656149 447.86413036 17.36910057 447.86113358 C15.31328887 447.86168142 13.25747467 447.86562774 11.20167732 447.87332916 C-7.15013166 447.93867599 -23.71822856 447.55678009 -37.5559082 433.97476196 C-44.18268253 426.68364936 -48.10779197 417.86505611 -48.12456417 407.96431541 C-48.12836984 407.31602876 -48.13217551 406.6677421 -48.13609651 405.9998104 C-48.14639176 403.83043969 -48.14251001 401.66133165 -48.13865662 399.49194336 C-48.14311016 397.91964101 -48.14842459 396.3473409 -48.15452534 394.77504408 C-48.16870205 390.45634903 -48.17036869 386.13772596 -48.16992843 381.81901097 C-48.17157694 377.16034155 -48.18464417 372.50170175 -48.19612122 367.8430481 C-48.21896837 357.65697253 -48.22689162 347.4709178 -48.23194766 337.28482008 C-48.23520521 330.92300704 -48.24172807 324.56120004 -48.24894905 318.19939041 C-48.26851511 300.58093905 -48.28491912 282.96249331 -48.28782558 265.34403038 C-48.28801315 264.21663235 -48.28820072 263.08923433 -48.28839398 261.92767272 C-48.28876023 259.64221295 -48.28912392 257.35675317 -48.28948509 255.0712934 C-48.2896679 253.93680619 -48.28985071 252.80231898 -48.29003906 251.63345337 C-48.29021961 250.49757926 -48.29040016 249.36170515 -48.29058618 248.19141062 C-48.29412718 229.78964547 -48.32114495 211.3879974 -48.35853695 192.98627286 C-48.39663081 174.0876913 -48.41598314 155.18916781 -48.4162851 136.29054701 C-48.41686945 125.68201609 -48.42534693 115.0736248 -48.45428276 104.46512985 C-48.4788111 95.43102959 -48.48606972 86.39711988 -48.47103523 77.36299531 C-48.46387215 72.75587131 -48.46469778 68.14912347 -48.48744583 63.54204178 C-48.50809847 59.31876463 -48.50537728 55.09615134 -48.48457099 50.87288089 C-48.48108805 49.35064452 -48.48593516 47.82835964 -48.50027543 46.30618684 C-48.62027173 32.68352975 -45.42280924 21.67314051 -35.86450195 11.63491821 C-25.61094559 1.91401412 -13.61132055 -0.10933761 0 0 Z " fill="#000000" transform="translate(47.864501953125,7.365081787109375)"/>
<path d="M0 0 C1.20849609 1.01126953 1.20849609 1.01126953 2.44140625 2.04296875 C26.21037204 22.46419288 41.78770255 52.45875654 44.30493164 83.79614258 C44.43550325 87.59857613 44.46780714 91.38299201 44.4375 95.1875 C44.43293793 96.19189621 44.43293793 96.19189621 44.42828369 97.21658325 C44.19772252 131.75310902 30.41198154 162.43005808 5.89794922 186.64086914 C-18.82091656 210.1216195 -51.6646271 221.07647871 -85.37890625 220.28515625 C-117.63579011 218.97425755 -148.3773549 204.63352588 -170.83203125 181.484375 C-178.67718981 172.49424735 -185.90446509 162.81888645 -191 152 C-191.28182129 151.40751465 -191.56364258 150.8150293 -191.85400391 150.20458984 C-206.39623001 119.34404708 -208.25267685 85.64217286 -197.3125 53.3125 C-192.14228025 39.08856212 -184.72674893 26.54569722 -175 15 C-174.25878906 14.10667969 -173.51757812 13.21335937 -172.75390625 12.29296875 C-167.41196504 6.09403163 -161.49746662 0.95663882 -155 -4 C-154.22140625 -4.60585938 -153.4428125 -5.21171875 -152.640625 -5.8359375 C-136.15087344 -18.06491433 -116.17508697 -25.10866588 -96 -28 C-95.03320312 -28.14308594 -94.06640625 -28.28617188 -93.0703125 -28.43359375 C-60.12720624 -32.21318526 -24.93977257 -21.95552628 0 0 Z M-150 15 C-151.010625 15.763125 -152.02125 16.52625 -153.0625 17.3125 C-157.57923442 21.44483149 -161.25260992 26.17251858 -165 31 C-165.89912109 32.12341797 -165.89912109 32.12341797 -166.81640625 33.26953125 C-183.5310249 55.41349239 -189.48830546 83.79693598 -186 111 C-181.32954533 139.92089235 -166.25855962 165.17915049 -142.60546875 182.5234375 C-119.02728522 199.24622103 -90.11195273 206.1558872 -61.49707031 201.47314453 C-34.44819478 196.3479274 -9.37210317 181.41978531 6.875 158.9375 C10.25368477 153.80386731 13.21254256 148.47397631 16 143 C16.43183594 142.18402344 16.86367188 141.36804688 17.30859375 140.52734375 C29.19856311 116.56220301 30.17622087 87.75711954 22.05004883 62.52636719 C17.30809999 48.69450583 10.72944603 36.95642768 1 26 C0.38769531 25.24460937 -0.22460938 24.48921875 -0.85546875 23.7109375 C-17.37037307 3.78037066 -43.51827064 -8.41639792 -69 -11 C-99.2094996 -13.20490265 -126.89643662 -4.70471513 -150 15 Z " fill="#000000" transform="translate(468,284)"/>
<path d="M0 0 C125.4 0 250.8 0 380 0 C380 5.61 380 11.22 380 17 C254.6 17 129.2 17 0 17 C0 11.39 0 5.78 0 0 Z " fill="#000000" transform="translate(33,74)"/>
<path d="M0 0 C3.72934886 1.86467443 5.86585213 3.50927784 8.8125 6.375 C10.02873047 7.53128906 10.02873047 7.53128906 11.26953125 8.7109375 C13 11 13 11 12.86035156 12.87255859 C11.72719884 15.67457132 10.12276485 17.21547497 7.96484375 19.328125 C6.75151367 20.52695312 6.75151367 20.52695312 5.51367188 21.75 C4.66353516 22.575 3.81339844 23.4 2.9375 24.25 C1.65649414 25.51070313 1.65649414 25.51070313 0.34960938 26.796875 C-1.76035412 28.87147597 -3.87699708 30.93875832 -6 33 C-5.79721436 33.60618164 -5.59442871 34.21236328 -5.38549805 34.83691406 C-5.11777588 35.63838867 -4.85005371 36.43986328 -4.57421875 37.265625 C-4.17722778 38.45333496 -4.17722778 38.45333496 -3.7722168 39.66503906 C0.28141624 51.92205656 0.54199809 63.8609493 -5.2890625 75.59375 C-10.40217398 84.6715736 -16.54929244 90.61217149 -26 95 C-26.67546875 95.32097656 -27.3509375 95.64195312 -28.046875 95.97265625 C-37.98381039 99.988523 -49.44668846 99.03472765 -59.28515625 95.2578125 C-69.70871048 90.42848234 -77.89273989 82.88329291 -82 72 C-85.96908899 60.553872 -85.79021452 49.75758221 -81.21875 38.4921875 C-76.6589903 29.1680635 -68.40061475 20.57209389 -58.640625 16.75 C-44.08150209 12.6148645 -33.98661887 14.40535245 -20 20 C-13.4 13.4 -6.8 6.8 0 0 Z M-61.4375 40.3125 C-65.41493303 45.51809224 -67.65709772 51.21769839 -67.34375 57.86328125 C-66.05224295 65.89117165 -62.43599359 72.07030278 -56 77 C-49.96418581 80.66882824 -43.86854657 80.67467306 -37 80 C-30.72304566 78.14778397 -25.38711695 74.54822218 -21.70703125 69.078125 C-17.62615071 61.47619592 -17.76563451 55.14343126 -20 47 C-24.72040645 50.93367204 -28.98200436 54.99842844 -33.10546875 59.55859375 C-35 61 -35 61 -36.94140625 61.0078125 C-39.77639491 59.61990534 -41.57189325 57.7116997 -43.75 55.4375 C-44.54921875 54.61121094 -45.3484375 53.78492188 -46.171875 52.93359375 C-46.77515625 52.29550781 -47.3784375 51.65742188 -48 51 C-46.34136495 46.67495164 -43.128959 43.90581175 -39.875 40.75 C-39.31167969 40.19570313 -38.74835938 39.64140625 -38.16796875 39.0703125 C-36.78313972 37.70895515 -35.39216796 36.35385141 -34 35 C-34.495 34.01 -34.495 34.01 -35 33 C-44.83926806 29.72024398 -54.44646865 32.78635267 -61.4375 40.3125 Z " fill="#000000" transform="translate(117,307)"/>
<path d="M0 0 C3.72934886 1.86467443 5.86585213 3.50927784 8.8125 6.375 C10.02873047 7.53128906 10.02873047 7.53128906 11.26953125 8.7109375 C13 11 13 11 13.046875 13.0234375 C11.61451383 15.72782091 9.76867834 17.2711677 7.4375 19.25 C6.54289062 20.03375 5.64828125 20.8175 4.7265625 21.625 C3.82679687 22.40875 2.92703125 23.1925 2 24 C0.4192363 25.39625815 -1.14526064 26.81130321 -2.6875 28.25 C-3.35136719 28.85328125 -4.01523438 29.4565625 -4.69921875 30.078125 C-6.24777305 31.94058621 -6.24777305 31.94058621 -5.8359375 34.359375 C-4.91829161 37.25810688 -3.93874404 40.12904934 -2.9375 43 C0.56633402 54.31712813 -0.01521094 64.9821214 -5.2890625 75.59375 C-11.54078353 86.69306221 -19.36468959 92.13132401 -31 97 C-42.51063631 100.04486251 -54.81727501 98.1569676 -65.05078125 92.234375 C-75.61982222 84.96905319 -82.29582924 75.17854971 -84.74609375 62.5078125 C-85.84505649 51.65344208 -83.60504241 40.79685222 -77.3125 31.8125 C-69.2647516 21.96512947 -60.49394454 16.22576581 -47.8984375 14.25 C-39.70210894 13.54303905 -32.4933438 14.7134457 -25 18 C-22.525 18.99 -22.525 18.99 -20 20 C-13.4 13.4 -6.8 6.8 0 0 Z M-62.81640625 42.1171875 C-66.30239645 47.66255805 -68.03720056 53.4149825 -67 60 C-65.03119378 68.21648461 -60.84502941 73.17955675 -54 78 C-48.77050159 80.72843395 -42.77623061 80.75920646 -37 80 C-28.92149029 77.33386294 -24.54457758 73.27125522 -20.25 66.0625 C-17.45379746 59.21180378 -18.10148836 53.91936887 -20 47 C-26.27762202 50.63441275 -30.99111424 55.81293254 -36 61 C-39.45201639 59.52278578 -41.64961936 57.56205999 -44.25 54.875 C-44.95640625 54.15054688 -45.6628125 53.42609375 -46.390625 52.6796875 C-46.92171875 52.12539063 -47.4528125 51.57109375 -48 51 C-46.34136495 46.67495164 -43.128959 43.90581175 -39.875 40.75 C-39.31167969 40.19570312 -38.74835938 39.64140625 -38.16796875 39.0703125 C-36.78313972 37.70895515 -35.39216796 36.35385141 -34 35 C-35.70888965 32.87939766 -36.63761769 32.07235587 -39.34765625 31.53125 C-48.97122911 31.42047506 -56.84500151 34.30192124 -62.81640625 42.1171875 Z " fill="#000000" transform="translate(117,208)"/>
<path d="M0 0 C3.63303084 1.69586126 5.94549046 3.73800488 8.75 6.625 C9.54921875 7.44226563 10.3484375 8.25953125 11.171875 9.1015625 C11.77515625 9.72804688 12.3784375 10.35453125 13 11 C11.55069562 14.37544634 9.7285105 16.43988412 7.05078125 18.93359375 C5.90319336 20.0309082 5.90319336 20.0309082 4.73242188 21.15039062 C3.11488152 22.67915556 1.48980358 24.19998316 -0.14257812 25.71289062 C-0.90376953 26.44572266 -1.66496094 27.17855469 -2.44921875 27.93359375 C-3.50629028 28.9244397 -3.50629028 28.9244397 -4.5847168 29.93530273 C-6.27854543 31.93944965 -6.27854543 31.93944965 -5.78271484 34.57446289 C-4.87189688 37.39697583 -3.91415516 40.19955509 -2.9375 43 C0.56633402 54.31712813 -0.01521094 64.9821214 -5.2890625 75.59375 C-11.3623741 86.37631392 -19.89908908 93.78855675 -31.9375 97.375 C-43.59741895 99.67848704 -55.49984098 97.93207576 -65.75 91.9375 C-75.85158026 84.97992743 -82.06864756 75.02097538 -84.62890625 63.0625 C-86.13449123 51.14460629 -83.3128161 39.539901 -76 30 C-69.02647284 21.46660492 -59.9662221 15.70969435 -48.953125 14.18359375 C-40.07134246 13.63141944 -32.08237692 14.33756653 -23.98828125 18.16015625 C-21.89913388 19.19455428 -21.89913388 19.19455428 -19 19 C-16.80063172 17.21813105 -16.80063172 17.21813105 -14.55078125 14.84375 C-13.70322266 13.98652344 -12.85566406 13.12929687 -11.98242188 12.24609375 C-11.10134766 11.33988281 -10.22027344 10.43367188 -9.3125 9.5 C-8.41982422 8.59378906 -7.52714844 7.68757813 -6.60742188 6.75390625 C-4.39810749 4.50914832 -2.19607467 2.25770002 0 0 Z M-61.4375 40.3125 C-65.4118709 45.51408458 -67.66608002 51.2211107 -67.33984375 57.86328125 C-66.13304067 65.45088221 -63.11991896 70.8725264 -57.0625 75.59375 C-50.61823619 79.98756623 -44.64776391 81.08352088 -37 80 C-30.20815223 77.95354805 -25.41757136 74.30989453 -21.34765625 68.52734375 C-18.25067269 62.71937748 -17.32467809 56.71747957 -18.875 50.3125 C-19.24625 49.219375 -19.6175 48.12625 -20 47 C-24.32504836 48.65863505 -27.09418825 51.871041 -30.25 55.125 C-30.80429688 55.68832031 -31.35859375 56.25164062 -31.9296875 56.83203125 C-33.29104485 58.21686028 -34.64614859 59.60783204 -36 61 C-39.45201639 59.52278578 -41.64961936 57.56205999 -44.25 54.875 C-44.95640625 54.15054688 -45.6628125 53.42609375 -46.390625 52.6796875 C-46.92171875 52.12539062 -47.4528125 51.57109375 -48 51 C-46.35303304 46.68452961 -43.14237949 43.99076095 -39.875 40.875 C-37.86216509 38.95428568 -35.92167788 37.01570493 -34 35 C-34 34.34 -34 33.68 -34 33 C-44.14188307 29.61937231 -54.21284025 32.5539984 -61.4375 40.3125 Z " fill="#000000" transform="translate(117,109)"/>
<path d="M0 0 C3.63303084 1.69586126 5.94549046 3.73800488 8.75 6.625 C9.54921875 7.44226563 10.3484375 8.25953125 11.171875 9.1015625 C12.07679688 10.04128906 12.07679688 10.04128906 13 11 C11.53994318 14.35758451 9.68811303 16.56509907 7.11064148 19.15005493 C5.89309677 20.37822685 5.89309677 20.37822685 4.6509552 21.63121033 C3.75897934 22.52070877 2.86700348 23.41020721 1.94799805 24.32666016 C0.99975478 25.27925206 0.05192991 26.23226059 -0.89550781 27.18565369 C-3.46731303 29.77084327 -6.0454813 32.3495965 -8.62525201 34.92683458 C-10.77914757 37.07966013 -12.9300585 39.23545549 -15.08102196 41.39120996 C-20.15575198 46.47703306 -25.23578979 51.55751139 -30.3190918 56.63476562 C-35.56170713 61.87133943 -40.7950757 67.11702578 -46.02401191 72.36725581 C-50.51549837 76.87635856 -55.01277109 81.37963233 -59.51470155 85.8783077 C-62.20267034 88.56446366 -64.88836668 91.25279632 -67.56847572 93.94679642 C-70.08903307 96.47992801 -72.61674104 99.00569972 -75.15010834 101.52601814 C-76.51987282 102.89228914 -77.88223962 104.26596421 -79.24436951 105.6398468 C-80.06452545 106.45298843 -80.8846814 107.26613007 -81.72969055 108.10391235 C-82.43779531 108.81218485 -83.14590006 109.52045734 -83.87546253 110.25019264 C-86.89209406 112.73474475 -89.56841503 114.03578962 -93.5 113.9375 C-99.33475029 111.74946864 -102.16962963 106.42021247 -104.8046875 101.08984375 C-105.13292511 100.44052383 -105.46116272 99.79120392 -105.79934692 99.12220764 C-106.48481273 97.75901069 -107.16524315 96.39327104 -107.84082031 95.02514648 C-108.87770671 92.9320361 -109.93767972 90.85177993 -111 88.77148438 C-111.66548096 87.44081261 -112.32959252 86.10945492 -112.9921875 84.77734375 C-113.3097702 84.15746078 -113.62735291 83.53757782 -113.95455933 82.89891052 C-115.17745556 80.38563672 -116.0324412 78.50641349 -115.8515625 75.68286133 C-114.41397528 72.84189554 -111.92809538 72.08096615 -109.125 70.75 C-107.52011719 69.96882813 -107.52011719 69.96882813 -105.8828125 69.171875 C-103 68 -103 68 -100 68 C-96.7 74.6 -93.4 81.2 -90 88 C-87.90008969 88.21560653 -87.90008969 88.21560653 -86.37957573 86.62567139 C-85.73247705 85.97672913 -85.08537838 85.32778687 -84.41867065 84.65917969 C-83.30387833 83.54851135 -83.30387833 83.54851135 -82.16656494 82.41540527 C-81.3508905 81.59254028 -80.53521606 80.76967529 -79.69482422 79.921875 C-78.83621796 79.06356079 -77.97761169 78.20524658 -77.09298706 77.32092285 C-74.73416207 74.96094044 -72.37987213 72.59659641 -70.02745199 70.23023987 C-67.56997142 67.76028575 -65.10685383 65.29596652 -62.64431763 62.83105469 C-57.9796276 58.16013993 -53.32006063 53.48414877 -48.66229355 48.80633163 C-43.36035864 43.48206854 -38.05276678 38.1634602 -32.74468207 32.84532928 C-21.82346222 21.90318497 -10.90940103 10.95392857 0 0 Z " fill="#000000" transform="translate(439,316)"/>
<path d="M0 0 C46.53 0 93.06 0 141 0 C141 5.61 141 11.22 141 17 C94.47 17 47.94 17 0 17 C0 11.39 0 5.78 0 0 Z " fill="#000000" transform="translate(140,239)"/>
<path d="M0 0 C46.53 0 93.06 0 141 0 C141 5.61 141 11.22 141 17 C94.47 17 47.94 17 0 17 C0 11.39 0 5.78 0 0 Z " fill="#000000" transform="translate(140,140)"/>
<path d="M0 0 C38.61 0 77.22 0 117 0 C117 5.61 117 11.22 117 17 C78.39 17 39.78 17 0 17 C0 11.39 0 5.78 0 0 Z " fill="#000000" transform="translate(214,173)"/>
<path d="M0 0 C35.64 0 71.28 0 108 0 C108 5.61 108 11.22 108 17 C72.36 17 36.72 17 0 17 C0 11.39 0 5.78 0 0 Z " fill="#000000" transform="translate(140,338)"/>
<path d="M0 0 C27.39 0 54.78 0 83 0 C83 5.61 83 11.22 83 17 C55.61 17 28.22 17 0 17 C0 11.39 0 5.78 0 0 Z " fill="#000000" transform="translate(297,140)"/>
<path d="M0 0 C22.11 0 44.22 0 67 0 C67 5.61 67 11.22 67 17 C44.89 17 22.78 17 0 17 C0 11.39 0 5.78 0 0 Z " fill="#000000" transform="translate(214,272)"/>
<path d="M0 0 C19.47 0 38.94 0 59 0 C59 5.61 59 11.22 59 17 C39.53 17 20.06 17 0 17 C0 11.39 0 5.78 0 0 Z " fill="#000000" transform="translate(140,371)"/>
<path d="M0 0 C19.47 0 38.94 0 59 0 C59 5.61 59 11.22 59 17 C39.53 17 20.06 17 0 17 C0 11.39 0 5.78 0 0 Z " fill="#000000" transform="translate(140,272)"/>
<path d="M0 0 C19.47 0 38.94 0 59 0 C59 5.61 59 11.22 59 17 C39.53 17 20.06 17 0 17 C0 11.39 0 5.78 0 0 Z " fill="#000000" transform="translate(140,173)"/>
<path d="M0 0 C11.22 0 22.44 0 34 0 C34 5.61 34 11.22 34 17 C22.78 17 11.56 17 0 17 C0 11.39 0 5.78 0 0 Z " fill="#000000" transform="translate(214,371)"/>
<path d="M0 0 C11.22 0 22.44 0 34 0 C34 5.61 34 11.22 34 17 C22.78 17 11.56 17 0 17 C0 11.39 0 5.78 0 0 Z " fill="#000000" transform="translate(297,239)"/>
<path d="M0 0 C5.61 0 11.22 0 17 0 C17 5.61 17 11.22 17 17 C11.39 17 5.78 17 0 17 C0 11.39 0 5.78 0 0 Z " fill="#000000" transform="translate(99,41)"/>
<path d="M0 0 C5.61 0 11.22 0 17 0 C17 5.61 17 11.22 17 17 C11.39 17 5.78 17 0 17 C0 11.39 0 5.78 0 0 Z " fill="#000000" transform="translate(66,41)"/>
<path d="M0 0 C5.61 0 11.22 0 17 0 C17 5.61 17 11.22 17 17 C11.39 17 5.78 17 0 17 C0 11.39 0 5.78 0 0 Z " fill="#000000" transform="translate(33,41)"/>
</svg>
