<?xml version="1.0" encoding="UTF-8"?>
<svg version="1.1" xmlns="http://www.w3.org/2000/svg" width="512" height="512">
<path d="M0 0 C9.19257855 6.77918772 14.21592589 13.98039941 17 25 C17.24050903 28.34739685 17.24050903 28.34739685 17.22705078 31.85327148 C17.22734283 32.49802933 17.22763489 33.14278717 17.22793579 33.80708313 C17.22655626 35.91189626 17.21106128 38.01634342 17.1953125 40.12109375 C17.19157745 41.59082343 17.1887328 43.06055562 17.18673706 44.5302887 C17.1791393 48.37884523 17.15952447 52.22724829 17.1373291 56.07574463 C17.11678708 60.01076177 17.10771755 63.94580395 17.09765625 67.88085938 C17.0762745 75.58730918 17.04218578 83.293633 17 91 C18.40523926 90.96072388 18.40523926 90.96072388 19.83886719 90.9206543 C23.37272025 90.83455314 26.90543162 90.77233326 30.43994141 90.7253418 C31.95867694 90.70046291 33.47729618 90.66654615 34.99560547 90.62280273 C46.31154996 90.30535875 55.49649653 91.28326636 65 98.17578125 C69.28506758 102.75377337 72.87820817 107.0413929 75 113 C75.5100505 114.35280799 75.5100505 114.35280799 76.03040504 115.73294544 C77.72805092 121.79019819 77.28235401 128.15333934 77.26742554 134.39006042 C77.27116431 135.86835519 77.27576674 137.34664798 77.28115618 138.82493764 C77.29337369 142.87914259 77.29312719 146.93326494 77.29076743 150.9874841 C77.29035894 155.36324082 77.30140152 159.73897117 77.31088257 164.11471558 C77.32748712 172.68505022 77.33299189 181.25535736 77.33410732 189.82570674 C77.33505814 196.79388144 77.3391701 203.76204706 77.34550858 210.73021889 C77.36312016 230.49425119 77.37234767 250.25826179 77.37084763 270.02230199 C77.37076772 271.0875229 77.3706878 272.15274381 77.37060547 273.25024414 C77.37052371 274.31676861 77.37044195 275.38329308 77.37035771 276.48213647 C77.36954502 293.76188062 77.38867853 311.04153755 77.4168822 328.32125648 C77.44562523 346.07177704 77.45942169 363.82225509 77.45769465 381.5727995 C77.4570312 391.53519042 77.46250376 401.49748992 77.48405075 411.45985985 C77.50228129 419.9431241 77.50659456 428.42625552 77.4930319 436.9095309 C77.48651147 441.23510335 77.48635145 445.5604211 77.5037384 449.88596916 C77.51951549 453.8519296 77.51655864 457.81743437 77.49917014 461.783384 C77.49611037 463.21204844 77.49969379 464.64074728 77.51089029 466.06937113 C77.6060308 479.07872338 75.6458543 489.38312032 66.37109375 498.87109375 C59.90137397 504.67998548 53.12173047 508.24440527 44.26085281 508.25726891 C43.13342014 508.2637178 42.00598746 508.27016669 40.84439015 508.276811 C39.61580305 508.2737138 38.38721594 508.2706166 37.12139893 508.26742554 C35.1519368 508.27422221 35.1519368 508.27422221 33.14268756 508.28115618 C29.50421767 508.29337789 25.86583978 508.2931267 22.22735405 508.29076743 C18.30083681 508.29035905 14.37434897 508.30140047 10.44784546 508.31088257 C2.75702941 508.32748927 -4.93375598 508.33299198 -12.62458846 508.33410732 C-18.87722489 508.33505801 -25.12985121 508.33916933 -31.38248444 508.34550858 C-49.11506819 508.36312053 -66.84762775 508.37234758 -84.58022031 508.37084763 C-86.01390969 508.37072776 -86.01390969 508.37072776 -87.4765625 508.37060547 C-88.43352434 508.37052371 -89.39048619 508.37044195 -90.37644687 508.37035771 C-105.8825485 508.36954495 -121.38855295 508.38868022 -136.89462647 508.4168822 C-152.82126641 508.44562019 -168.74785898 508.45942197 -184.6745255 508.45769465 C-193.61406002 508.45703104 -202.55349269 508.46251066 -211.49300385 508.48405075 C-219.1049605 508.50227465 -226.71676914 508.50660002 -234.32873818 508.4930319 C-238.21053315 508.48650816 -242.09204425 508.4863633 -245.9738121 508.5037384 C-250.18724363 508.52240362 -254.4000198 508.50989914 -258.61346436 508.49447632 C-259.83312857 508.50476344 -261.05279279 508.51505057 -262.30941653 508.52564943 C-273.93826342 508.43165101 -281.51024341 505.26948404 -289.87109375 497.22265625 C-299.13250143 487.55340677 -299.44383051 476.50032607 -299.38095093 463.70422363 C-299.38441211 462.1641661 -299.38917976 460.62411106 -299.39513266 459.08406115 C-299.40760904 454.87310563 -299.40148767 450.66235516 -299.39217401 446.45139909 C-299.38537003 441.90190664 -299.39587142 437.35244878 -299.40411377 432.80296326 C-299.41743891 423.89880763 -299.41457879 414.99472796 -299.40587585 406.09056938 C-299.39909492 398.85261467 -299.39818435 391.61468122 -299.4014473 384.37672424 C-299.401907 383.34575663 -299.40236669 382.31478901 -299.40284032 381.25257996 C-299.40379952 379.1580516 -299.40477216 377.06352326 -299.4057581 374.96899492 C-299.41430842 355.33828468 -299.40448346 335.70761651 -299.388357 316.07691318 C-299.37495415 299.24054476 -299.37728234 282.40423839 -299.39111328 265.56787109 C-299.4071754 246.00639496 -299.41348448 226.44495568 -299.40427649 206.88347387 C-299.40332086 204.79674117 -299.40237775 202.71000847 -299.4014473 200.62327576 C-299.40098447 199.59661963 -299.40052164 198.56996349 -299.40004479 197.51219657 C-299.3974568 190.28469776 -299.40182179 183.05722236 -299.40888596 175.82972717 C-299.41730816 167.0193049 -299.41500563 158.20896279 -299.39904372 149.39854968 C-299.39117074 144.90515521 -299.38805283 140.41189431 -299.39799118 135.9185009 C-299.40695873 131.80170913 -299.40197145 127.68517419 -299.38605852 123.56840557 C-299.38271943 122.08267085 -299.38438511 120.59691425 -299.39168589 119.11119372 C-299.43820039 108.85520561 -298.96438525 99.34218177 -292.8125 90.75 C-292.01779297 89.59757812 -292.01779297 89.59757812 -291.20703125 88.421875 C-285.79888363 82.48727053 -279.75587521 79.08961547 -272.1875 76.65234375 C-271.33077698 76.36316071 -270.47405396 76.07397766 -269.59136963 75.77603149 C-266.7322126 74.81531286 -263.86638929 73.8763993 -261 72.9375 C-258.9354884 72.24911604 -256.87137151 71.5595474 -254.80761719 70.86889648 C-249.10696061 68.96671758 -243.39952842 67.08574323 -237.68969727 65.21130371 C-233.90897529 63.97011718 -230.12919647 62.72608169 -226.34960938 61.48144531 C-215.5725442 57.93364763 -204.79325831 54.39267763 -194.0090332 50.86669922 C-177.04959092 45.32120339 -160.10897376 39.72308336 -143.1875 34.0625 C-126.98970853 28.64518736 -110.77182426 23.29671323 -94.52374268 18.03216553 C-78.03701443 12.68925516 -61.5934024 7.22084842 -45.16259766 1.70849609 C-43.78280479 1.24645027 -43.78280479 1.24645027 -42.37513733 0.77507019 C-40.65515553 0.19902525 -38.93559518 -0.37828019 -37.21653748 -0.95707703 C-36.45293411 -1.21269913 -35.68933075 -1.46832123 -34.90258789 -1.73168945 C-34.24174698 -1.95371536 -33.58090607 -2.17574127 -32.90003967 -2.40449524 C-22.68814126 -5.60507795 -9.23550757 -5.90310793 0 0 Z M-32.23046875 30.2265625 C-33.23626984 30.56557083 -34.24207092 30.90457916 -35.27835083 31.25386047 C-37.44850229 31.98635166 -39.61728286 32.72291439 -41.78482056 33.46310425 C-46.40945195 35.04225376 -51.04057656 36.60191997 -55.67149353 38.16252136 C-58.03922274 38.96054964 -60.40662203 39.75955747 -62.7736969 40.55952454 C-73.26058248 44.10066483 -83.78037713 47.5338008 -94.3125 50.9375 C-111.71986281 56.57328372 -129.07983955 62.34608564 -146.43258667 68.14761353 C-168.58319193 75.55121956 -190.77832412 82.81280289 -213 90 C-213 90.33 -213 90.66 -213 91 C-147.33 91 -81.66 91 -14 91 C-14 70.54 -14 50.08 -14 29 C-15.82806355 26.76597529 -15.82806355 26.76597529 -18.4855957 26.67333984 C-23.34878088 27.12536775 -27.62941813 28.63763611 -32.23046875 30.2265625 Z M-268 124 C-268.75137475 126.69319204 -268.75137475 126.69319204 -268.6292057 129.84246063 C-268.64224444 131.06925553 -268.65528318 132.29605042 -268.66871703 133.56002092 C-268.65790575 134.9286488 -268.64662242 136.29727302 -268.63491821 137.66589355 C-268.64067591 139.11415956 -268.64861465 140.56241827 -268.65855443 142.0106616 C-268.67950001 146.00024159 -268.66907811 149.98922649 -268.65362334 153.97880912 C-268.64234502 158.27746424 -268.65975497 162.57601453 -268.67352295 166.87464905 C-268.69579768 175.29953477 -268.69093539 183.72419823 -268.67645974 192.14909279 C-268.66518411 198.99398066 -268.66362933 205.83880608 -268.66907883 212.68370056 C-268.66984499 213.65657972 -268.67061116 214.62945888 -268.67140054 215.63181922 C-268.67299911 217.60798444 -268.67462017 219.58414965 -268.6762635 221.56031483 C-268.6905334 240.10635891 -268.67410882 258.65227957 -268.64726166 277.1983034 C-268.62492176 293.12396332 -268.62880154 309.04944103 -268.65185547 324.97509766 C-268.67859158 343.45315507 -268.68915999 361.93110421 -268.67379415 380.40917826 C-268.67220134 382.37821863 -268.67062949 384.34725903 -268.66907883 386.31629944 C-268.66830745 387.28519504 -268.66753607 388.25409065 -268.66674132 389.25234672 C-268.66241774 396.0918364 -268.66972501 402.93125762 -268.68147659 409.77073669 C-268.69547585 418.10178945 -268.69175608 426.43260655 -268.66507287 434.76363218 C-268.65189981 439.01721635 -268.64684119 443.27040715 -268.66331863 447.52398872 C-268.67815976 451.41389141 -268.67012811 455.30303414 -268.64343087 459.19286734 C-268.63782087 460.60398495 -268.64074252 462.01516608 -268.65280981 463.42624325 C-268.66790065 465.33663189 -268.64950936 467.24719902 -268.6292057 469.15753937 C-268.62839394 470.22102868 -268.62758218 471.28451798 -268.62674582 472.38023424 C-268.23317476 475.1778893 -268.23317476 475.1778893 -265.79498422 476.84155858 C-262.83382348 478.06887544 -260.84161564 478.37583223 -257.65104675 478.37752342 C-256.58522275 478.38534666 -255.51939875 478.39316991 -254.42127705 478.40123022 C-252.67396683 478.39119197 -252.67396683 478.39119197 -250.89135742 478.38095093 C-249.0281411 478.38797089 -249.0281411 478.38797089 -247.12728405 478.39513266 C-243.68198212 478.4050319 -240.23717045 478.40146446 -236.79189825 478.39217401 C-233.07541048 478.38539111 -229.3589658 478.39586096 -225.64248657 478.40411377 C-218.36293374 478.41746143 -211.08347365 478.41456878 -203.80391717 478.40587585 C-197.88826247 478.39910377 -191.97263378 478.39818052 -186.05697632 478.4014473 C-185.21538757 478.401907 -184.37379881 478.40236669 -183.50670737 478.40284032 C-181.79709569 478.40379949 -180.08748401 478.40477213 -178.37787235 478.4057581 C-162.34262843 478.41431502 -146.30743595 478.40447313 -130.27220047 478.388357 C-116.50989174 478.37495354 -102.74765892 478.37728155 -88.98535156 478.39111328 C-73.00792471 478.40716376 -57.03054295 478.41349102 -41.05310917 478.40427649 C-39.34974735 478.40332083 -37.64638552 478.40237772 -35.94302368 478.4014473 C-35.10491266 478.40098447 -34.26680164 478.40052164 -33.40329331 478.40004479 C-27.49397938 478.39745331 -21.58469403 478.40182931 -15.67538452 478.40888596 C-8.47499468 478.41729525 -1.27470296 478.41503287 5.92567563 478.39904372 C9.60021825 478.39115327 13.27459719 478.38808248 16.94913864 478.39799118 C20.92997103 478.40856356 24.91053472 478.3959493 28.89135742 478.38095093 C30.0562309 478.38764309 31.22110437 478.39433526 32.42127705 478.40123022 C33.48710105 478.39340697 34.55292505 478.38558373 35.65104675 478.37752342 C36.56991763 478.37703637 37.48878851 478.37654931 38.43550396 478.37604749 C41.67495127 477.90102783 43.48200024 477.10295277 46 475 C46.75137475 472.30680796 46.75137475 472.30680796 46.6292057 469.15753937 C46.64224444 467.93074447 46.65528318 466.70394958 46.66871703 465.43997908 C46.65790575 464.0713512 46.64662242 462.70272698 46.63491821 461.33410645 C46.64067591 459.88584044 46.64861465 458.43758173 46.65855443 456.9893384 C46.67950001 452.99975841 46.66907811 449.01077351 46.65362334 445.02119088 C46.64234502 440.72253576 46.65975497 436.42398547 46.67352295 432.12535095 C46.69579768 423.70046523 46.69093539 415.27580177 46.67645974 406.85090721 C46.66518411 400.00601934 46.66362933 393.16119392 46.66907883 386.31629944 C46.66984499 385.34342028 46.67061116 384.37054112 46.67140054 383.36818078 C46.67299911 381.39201556 46.67462017 379.41585035 46.6762635 377.43968517 C46.6905334 358.89364109 46.67410882 340.34772043 46.64726166 321.8016966 C46.62492176 305.87603668 46.62880154 289.95055897 46.65185547 274.02490234 C46.67859158 255.54684493 46.68915999 237.06889579 46.67379415 218.59082174 C46.67220134 216.62178137 46.67062949 214.65274097 46.66907883 212.68370056 C46.66830745 211.71480496 46.66753607 210.74590935 46.66674132 209.74765328 C46.66241774 202.9081636 46.66972501 196.06874238 46.68147659 189.22926331 C46.69547585 180.89821055 46.69175608 172.56739345 46.66507287 164.23636782 C46.65189981 159.98278365 46.64684119 155.72959285 46.66331863 151.47601128 C46.67815976 147.58610859 46.67012811 143.69696586 46.64343087 139.80713266 C46.63782087 138.39601505 46.64074252 136.98483392 46.65280981 135.57375675 C46.66790065 133.66336811 46.64950936 131.75280098 46.6292057 129.84246063 C46.62839394 128.77897132 46.62758218 127.71548202 46.62674582 126.61976576 C46.23317476 123.8221107 46.23317476 123.8221107 43.79498422 122.15844142 C40.83382348 120.93112456 38.84161564 120.62416777 35.65104675 120.62247658 C34.05231075 120.61074171 34.05231075 120.61074171 32.42127705 120.59876978 C31.25640357 120.60546195 30.09153009 120.61215411 28.89135742 120.61904907 C27.64921321 120.6143691 26.407069 120.60968913 25.12728405 120.60486734 C21.68198212 120.5949681 18.23717045 120.59853554 14.79189825 120.60782599 C11.07541048 120.61460889 7.3589658 120.60413904 3.64248657 120.59588623 C-3.63706626 120.58253857 -10.91652635 120.58543122 -18.19608283 120.59412415 C-24.11173753 120.60089623 -30.02736622 120.60181948 -35.94302368 120.5985527 C-36.78461243 120.598093 -37.62620119 120.59763331 -38.49329263 120.59715968 C-40.20290431 120.59620051 -41.91251599 120.59522787 -43.62212765 120.5942419 C-59.65737157 120.58568498 -75.69256405 120.59552687 -91.72779953 120.611643 C-105.49010826 120.62504646 -119.25234108 120.62271845 -133.01464844 120.60888672 C-148.99207529 120.59283624 -164.96945705 120.58650898 -180.94689083 120.59572351 C-182.65025265 120.59667917 -184.35361448 120.59762228 -186.05697632 120.5985527 C-186.89508734 120.59901553 -187.73319836 120.59947836 -188.59670669 120.59995521 C-194.50602062 120.60254669 -200.41530597 120.59817069 -206.32461548 120.59111404 C-213.52500532 120.58270475 -220.72529704 120.58496713 -227.92567563 120.60095628 C-231.60021825 120.60884673 -235.27459719 120.61191752 -238.94913864 120.60200882 C-242.92997103 120.59143644 -246.91053472 120.6040507 -250.89135742 120.61904907 C-252.0562309 120.61235691 -253.22110437 120.60566474 -254.42127705 120.59876978 C-255.48710105 120.60659303 -256.55292505 120.61441627 -257.65104675 120.62247658 C-258.56991763 120.62296363 -259.48878851 120.62345069 -260.43550396 120.62395251 C-263.67495127 121.09897217 -265.48200024 121.89704723 -268 124 Z " fill="#000000" transform="translate(367,4)"/>
<path d="M0 0 C4.86363286 2.34174915 7.65891748 5.14442145 10 10 C10.60804715 13.9957384 10.86933684 17.9625084 11 22 C11.969375 22.20753906 12.93875 22.41507813 13.9375 22.62890625 C40.45084238 28.59682952 62.79159046 42.99288228 77.75244141 65.96142578 C84.28820282 76.64119248 91 90.3074504 91 103 C92.19625 102.938125 93.3925 102.87625 94.625 102.8125 C98.79034704 102.82721854 101.46642017 103.67104966 105 106 C109.67177343 111.17683002 110.3478341 114.39353498 110.28515625 121.234375 C109.7889048 126.0473343 107.46185415 128.71534029 103.9375 131.8125 C99.70730161 134.40520224 95.57189035 134.1456515 90.78312683 134.14044189 C89.93541806 134.14341302 89.08770929 134.14638414 88.21431237 134.1494453 C85.36316124 134.15814277 82.51205204 134.15964143 79.66088867 134.16113281 C77.62094533 134.16576023 75.58100286 134.17078479 73.5410614 134.17617798 C67.99142673 134.18931102 62.44180415 134.19574866 56.89215636 134.20018864 C53.42648324 134.2031178 49.96081344 134.20722231 46.49514198 134.21169281 C35.65623972 134.2253699 24.81734504 134.23503562 13.97843474 134.2388947 C1.45829498 134.24337662 -11.06173567 134.26092988 -23.58184224 134.2898953 C-33.25410557 134.31149697 -42.92633816 134.32159817 -52.59862536 134.32293582 C-58.3779807 134.3239849 -64.15723351 134.32991468 -69.93656349 134.34775543 C-75.3726749 134.36420996 -80.80860641 134.36640431 -86.24473381 134.35761642 C-88.2401795 134.35684466 -90.23563477 134.3612071 -92.23105621 134.37107468 C-94.95497797 134.383755 -97.67825879 134.37793867 -100.4021759 134.36749268 C-101.58686666 134.37957728 -101.58686666 134.37957728 -102.79549056 134.39190602 C-107.6142288 134.34868128 -110.91298857 133.56646592 -115 131 C-119.67177343 125.82316998 -120.3478341 122.60646502 -120.28515625 115.765625 C-119.7889048 110.9526657 -117.46185415 108.28465971 -113.9375 105.1875 C-110.85389545 103.29754882 -108.34752812 102.87954872 -104.8125 102.9375 C-103.554375 102.958125 -102.29625 102.97875 -101 103 C-100.938125 101.989375 -100.87625 100.97875 -100.8125 99.9375 C-97.80590962 76.85988736 -82.88986933 55.18939707 -65 41 C-51.67441116 31.31582022 -37.13913863 25.06553471 -21 22 C-20.97421875 21.20335937 -20.9484375 20.40671875 -20.921875 19.5859375 C-20.49297754 11.57335321 -19.48292744 7.15122006 -13.375 1.625 C-8.79729761 -0.57907893 -4.99447589 -0.7971639 0 0 Z M-53 73 C-53.51691406 73.50144531 -54.03382813 74.00289062 -54.56640625 74.51953125 C-58.8385629 78.90637667 -61.63894213 83.70045176 -64.375 89.125 C-64.72087158 89.80602783 -65.06674316 90.48705566 -65.4230957 91.1887207 C-67.4623334 95.38408857 -68.19057254 98.14343522 -69 103 C-26.76 103 15.48 103 59 103 C56.06125709 89.77565692 50.5856873 80.47176572 41 71 C39.96939453 69.93652344 39.96939453 69.93652344 38.91796875 68.8515625 C26.53482343 56.85898021 9.26595898 51.59462406 -7.69140625 51.78515625 C-25.06137692 52.91307642 -41.28191721 59.97990801 -53 73 Z " fill="#000000" transform="translate(261,165)"/>
<path d="M0 0 C1.24962512 -0.00807831 1.24962512 -0.00807831 2.52449518 -0.01631981 C5.31429661 -0.03062027 8.10362495 -0.02349054 10.89344788 -0.01637268 C12.89428082 -0.02207515 14.89511051 -0.02903893 16.89593506 -0.03717041 C22.32979966 -0.05513041 27.76350303 -0.05392808 33.19738841 -0.04822803 C37.73280966 -0.04514031 42.26819976 -0.05122397 46.80361658 -0.05726677 C57.50253196 -0.0713197 68.2013675 -0.06974428 78.90028381 -0.05836487 C89.94016399 -0.04688233 100.97980128 -0.06095995 112.01964945 -0.08776134 C121.49664076 -0.10990772 130.97355577 -0.11655812 140.45057112 -0.11068493 C146.11142356 -0.10731169 151.77212028 -0.10975491 157.43295097 -0.12693596 C162.75589204 -0.14238603 168.07847288 -0.13847091 173.40139961 -0.11963081 C175.35491491 -0.1159396 177.30845678 -0.11906886 179.26194763 -0.1295166 C181.92903616 -0.14269176 184.59492604 -0.13121012 187.26196289 -0.11352539 C188.0348287 -0.1231304 188.8076945 -0.1327354 189.60398048 -0.14263147 C194.77517509 -0.07209174 197.69750261 1.1441466 201.69447327 4.38768005 C204.80965068 8.18608176 206.03231798 12.12629195 205.69447327 17.01268005 C204.80859422 22.15077853 202.74055294 25.80616643 198.57294369 29.02751255 C194.82305335 30.79945328 191.45085857 30.8068559 187.38894653 30.77536011 C186.55586312 30.78074565 185.72277971 30.78613118 184.86445135 30.79167992 C182.07464992 30.80598038 179.28532158 30.79885065 176.49549866 30.79173279 C174.49466571 30.79743526 172.49383602 30.80439904 170.49301147 30.81253052 C165.05914687 30.83049052 159.62544351 30.82928819 154.19155812 30.82358813 C149.65613687 30.82050042 145.12074677 30.82658408 140.58532995 30.83262688 C129.88641458 30.84667981 119.18757904 30.84510438 108.48866272 30.83372498 C97.44878254 30.82224244 86.40914525 30.83632006 75.36929709 30.86312145 C65.89230578 30.88526783 56.41539077 30.89191823 46.93837541 30.88604504 C41.27752298 30.8826718 35.61682626 30.88511502 29.95599556 30.90229607 C24.63305449 30.91774614 19.31047366 30.91383102 13.98754692 30.89499092 C12.03403162 30.89129971 10.08048975 30.89442897 8.1269989 30.90487671 C5.45991037 30.91805187 2.79402049 30.90657022 0.12698364 30.8888855 C-0.64588216 30.8984905 -1.41874797 30.90809551 -2.21503395 30.91799158 C-7.38622856 30.84745185 -10.30855608 29.6312135 -14.30552673 26.38768005 C-17.42070415 22.58927835 -18.64337144 18.64906815 -18.30552673 13.76268005 C-17.41964769 8.62458158 -15.3516064 4.96919368 -11.18399715 1.74784756 C-7.43410681 -0.02409317 -4.06191204 -0.03149579 0 0 Z " fill="#000000" transform="translate(162.30552673339844,398.61231994628906)"/>
<path d="M0 0 C1.20336754 -0.00788544 1.20336754 -0.00788544 2.43104553 -0.01593018 C5.07467294 -0.02910039 7.71769492 -0.0204028 10.36132812 -0.01025391 C12.20308548 -0.0122755 14.04484206 -0.01518765 15.88659668 -0.01895142 C19.7433231 -0.02337073 23.59984084 -0.01695636 27.45654297 -0.00292969 C32.39633547 0.01416196 37.33563895 0.00431868 42.27541351 -0.01364708 C46.07757237 -0.02449552 49.87961558 -0.0210337 53.68177795 -0.0132637 C55.50301674 -0.01126463 57.32426609 -0.01371068 59.14549255 -0.02070236 C61.69232943 -0.02833431 64.23837798 -0.01668855 66.78515625 0 C67.53543594 -0.00607269 68.28571564 -0.01214539 69.05873108 -0.0184021 C73.522594 0.03569635 76.33444896 0.66045758 79.89257812 3.38818359 C84.28589097 8.39167878 85.23834873 11.29542914 85.18164062 17.84521484 C84.63559614 22.6489305 81.54458679 26.37130687 77.89257812 29.38818359 C74.22936957 30.60925311 70.84345928 30.55161337 67.02807617 30.56518555 C65.82755615 30.57504234 65.82755615 30.57504234 64.6027832 30.58509827 C61.9532868 30.60481421 59.30384701 30.61648971 56.65429688 30.62646484 C55.74883432 30.63054037 54.84337177 30.6346159 53.91047096 30.63881493 C49.11845758 30.65966783 44.32647276 30.67397324 39.53442383 30.68334961 C34.58791251 30.69441586 29.64185082 30.72882041 24.69549847 30.76852131 C20.88903472 30.79467848 17.0826783 30.80304061 13.27613258 30.80663109 C11.4528989 30.81149893 9.62967008 30.82311856 7.80652428 30.84166908 C5.25240904 30.86604303 2.69945985 30.86509904 0.14526367 30.8581543 C-0.60456284 30.87096436 -1.35438934 30.88377441 -2.12693787 30.89697266 C-7.25968497 30.84622297 -10.13986422 29.59681517 -14.10742188 26.38818359 C-17.22259929 22.58978189 -18.44526658 18.64957169 -18.10742188 13.76318359 C-17.22096097 8.62171037 -15.15396009 4.96084303 -10.97351074 1.74838257 C-7.285964 -0.0016669 -3.99680557 -0.03234977 0 0 Z " fill="#000000" transform="translate(164.107421875,338.61181640625)"/>
</svg>
