<?xml version="1.0" encoding="UTF-8"?>
<svg version="1.1" xmlns="http://www.w3.org/2000/svg" width="512" height="512">
<path d="M0 0 C1.13544283 -0.00525911 1.13544283 -0.00525911 2.2938239 -0.01062447 C4.82082851 -0.01990066 7.34760075 -0.01502498 9.87461472 -0.01015663 C11.70850491 -0.01389479 13.54239351 -0.01849698 15.37627959 -0.02388728 C20.40875609 -0.03611209 25.44116608 -0.03585741 30.47365403 -0.03349853 C35.9039336 -0.03309023 41.33419188 -0.04413071 46.76446152 -0.05361366 C57.40077436 -0.07022171 68.03706504 -0.07572312 78.67338976 -0.07683842 C87.31964835 -0.07778897 95.96589964 -0.0818996 104.61215591 -0.08823967 C129.12930662 -0.1058514 153.64643982 -0.11507862 178.1635969 -0.11357872 C179.1543845 -0.11351889 179.1543845 -0.11351889 180.165188 -0.11345784 C181.50093029 -0.11337697 182.83667257 -0.11329337 184.17241485 -0.11320706 C204.95132961 -0.11198173 225.73017908 -0.12699266 246.50907516 -0.15435219 C269.86473806 -0.18509202 293.22035846 -0.20225821 316.57604289 -0.20042574 C328.93838641 -0.19976187 341.3006563 -0.20525326 353.66298294 -0.22678185 C364.18837243 -0.2449941 374.71365491 -0.24934053 385.23905334 -0.235763 C390.6076269 -0.2292337 395.97599515 -0.229115 401.34454918 -0.2464695 C406.26340766 -0.26220656 411.18189813 -0.25932992 416.10074767 -0.24190123 C417.87594748 -0.23883277 419.6511748 -0.2424579 421.42634216 -0.25362138 C436.39709036 -0.3414991 447.94443141 1.64988045 459.18925095 12.22211266 C468.24380159 21.54644507 470.84240832 31.17941134 470.69364548 43.88446617 C470.38551197 51.10916985 468.82741671 56.99777282 465.0994072 63.25726891 C464.66499313 64.00105797 464.23057907 64.74484703 463.78300095 65.51117516 C458.38015441 73.62314132 449.27230813 79.44780812 439.87188011 81.81919259 C436.42197978 82.36430869 433.03470875 82.39888158 429.55234051 82.39148998 C428.79715178 82.39384221 428.04196305 82.39619444 427.26388982 82.39861795 C424.72491189 82.40529257 422.18598532 82.40485019 419.64699936 82.40443993 C417.81157464 82.4077395 415.97615065 82.41146527 414.14072758 82.41558141 C409.09008868 82.42559877 404.03946166 82.42931778 398.98881423 82.43197072 C393.54417216 82.43587452 388.09953948 82.44545279 382.65490341 82.45418358 C369.50294203 82.47394542 356.35097988 82.48401367 343.19900736 82.49291137 C337.00570713 82.49729457 330.81240776 82.50266128 324.6191082 82.50790024 C304.03172705 82.52491194 283.44434644 82.53940632 262.85695934 82.54664898 C257.51451682 82.54855888 252.17207431 82.55047755 246.82963181 82.55243492 C245.83405735 82.55279515 245.83405735 82.55279515 244.81837029 82.55316265 C223.30382947 82.56105386 201.78934381 82.58448243 180.27482707 82.61699087 C157.5211551 82.6513088 134.76751389 82.67100081 112.01381546 82.67429322 C99.61341629 82.67645847 87.2130982 82.6852094 74.81272316 82.71075439 C64.25249872 82.73245841 53.69237506 82.74051322 43.13213085 82.73078761 C37.74534688 82.72624215 32.35877085 82.72814373 26.97201538 82.74754906 C22.0363904 82.76517547 17.10112514 82.76418705 12.16549636 82.74865177 C10.38414766 82.74627493 8.60277409 82.75060315 6.8214634 82.76248042 C-8.10907829 82.85583143 -19.9476478 80.97980724 -31.0255928 70.18695641 C-40.52824939 60.16025626 -42.39625277 50.2487748 -42.17793655 36.82367516 C-41.7094236 25.46981155 -36.16736672 17.04240084 -28.0255928 9.50726891 C-19.78209136 2.62723633 -10.68307692 -0.06369116 0 0 Z " fill="#000000" transform="translate(41.90059280395508,214.74273109436035)"/>
</svg>
