<?xml version="1.0" encoding="UTF-8"?>
<svg version="1.1" xmlns="http://www.w3.org/2000/svg" width="512" height="512">
<path d="M0 0 C1.16459897 0.58967377 2.32919794 1.17934754 3.52908778 1.78689021 C4.79482384 2.41701544 6.0610829 3.04609101 7.32781553 3.67421043 C10.79634954 5.39791415 14.25725649 7.13645771 17.71706843 8.87758738 C21.45369087 10.7547535 25.19721792 12.61805695 28.9398849 14.48313349 C36.26582276 18.13662048 43.58526943 21.80293203 50.90254715 25.47372756 C59.42319766 29.74768069 67.94994288 34.00940691 76.47689566 38.27076849 C91.68900059 45.87363204 106.89513522 53.48836121 122.09811854 61.10944575 C136.85302366 68.50590874 151.61266772 75.89280601 166.37741542 83.269602 C182.45541944 91.302548 198.53091701 99.34046831 214.60194921 107.38735473 C216.31507559 108.24512521 218.02820248 109.10289465 219.74132991 109.96066302 C220.5842249 110.38271406 221.42711989 110.80476509 222.29555716 111.23960555 C228.23859029 114.21500306 234.18332849 117.18697608 240.12867427 120.15774935 C247.3713531 123.77696803 254.61106728 127.40203903 261.84708098 131.03456626 C265.53973297 132.88814193 269.2336134 134.73914856 272.93099284 136.58327883 C276.31446957 138.27094622 279.69416738 139.96593968 283.07098064 141.66689881 C284.87433144 142.57289704 286.68161767 143.47104879 288.48902321 144.36893082 C289.55797286 144.90923783 290.62692251 145.44954485 291.72826457 146.00622481 C292.65196448 146.46894154 293.57566438 146.93165827 294.52735519 147.40839672 C297.7086863 149.32613293 300.5661312 151.24603955 301.49841762 154.96489924 C301.51223979 156.07478961 301.51223979 156.07478961 301.5263412 157.207102 C301.54540523 158.05155375 301.56446925 158.8960055 301.58411098 159.7660467 C301.58137675 161.12240985 301.58137675 161.12240985 301.57858729 162.50617427 C301.58715755 163.44308604 301.5957278 164.37999781 301.60455775 165.34530085 C301.61603225 167.32475511 301.61705362 169.30429368 301.60837245 171.28376216 C301.60205267 174.30923574 301.64896501 177.33079403 301.69968104 180.35578364 C301.70422746 182.28090892 301.70563382 184.20604471 301.70358729 186.13117427 C301.72200679 187.03339213 301.74042628 187.93561 301.75940394 188.8651678 C301.74071757 190.13657367 301.74071757 190.13657367 301.7216537 191.4336645 C301.72291255 192.174387 301.7241714 192.91510951 301.7254684 193.67827815 C299.92769495 198.97905257 294.25012479 201.36793574 289.57858729 203.77961177 C287.59044752 204.76051516 285.59813829 205.73300696 283.60202479 206.69758052 C282.57979823 207.19967036 281.55757167 207.7017602 280.50436854 208.21906489 C277.9987494 209.44845746 275.48969716 210.67018653 272.97702479 211.88508052 C272.97648003 212.79268217 272.97593526 213.70028382 272.97537398 214.63538855 C272.96041249 236.71030485 272.9179912 258.78501904 272.84493423 280.85982245 C272.810268 291.53501314 272.78492656 302.21007448 272.78146815 312.88532466 C272.77843053 322.18892451 272.75796727 331.49229409 272.71650022 340.79580498 C272.69515019 345.72288089 272.68257991 350.64962928 272.690871 355.57675189 C272.69839845 360.21359218 272.68264176 364.84976813 272.64896464 369.48648661 C272.64071557 371.18883957 272.64100002 372.89125839 272.65042758 374.59360522 C272.66202602 376.91792328 272.64297129 379.24005549 272.61626124 381.56420344 C272.61349586 382.86485334 272.61073049 384.16550324 272.60788131 385.50556678 C271.81161004 389.77121141 270.30087592 391.18410814 266.97702479 393.88508052 C264.66257153 395.28458033 262.45504597 396.51972143 260.03952479 397.69758052 C259.44462245 398.00888911 258.84972011 398.3201977 258.23679042 398.64093989 C254.27978784 400.6086297 251.35944394 401.55209022 246.97702479 400.88508052 C243.93065461 399.64798517 241.09431165 398.11340044 238.22702479 396.51008052 C237.46003261 396.09758052 236.69304042 395.68508052 235.90280604 395.26008052 C230.29896615 392.20702188 230.29896615 392.20702188 227.97702479 389.88508052 C227.71531177 387.21829242 227.71531177 387.21829242 227.69855189 383.76017207 C227.68180667 381.79975726 227.68180667 381.79975726 227.66472316 379.79973811 C227.66235795 378.34299706 227.66018235 376.8862557 227.65817714 375.42951411 C227.64888335 373.9021395 227.63871551 372.37476999 227.62773585 370.84740657 C227.60035966 366.69270968 227.58526398 362.53804684 227.57230783 358.38328332 C227.55671049 354.04437513 227.52990953 349.70553683 227.50427699 345.36667842 C227.45742884 337.14672522 227.42071402 328.92675896 227.38760412 320.7067402 C227.34229081 309.60164839 227.28139661 298.49664285 227.22135615 287.39162272 C227.1271414 269.88948517 227.05380674 252.38732332 226.97702479 234.88508052 C202.55702479 247.09508052 178.13702479 259.30508052 152.97702479 271.88508052 C152.96284511 284.68804927 152.94866542 297.49101802 152.93405604 310.68195552 C152.91400762 318.77572586 152.89270362 326.86946035 152.86569667 334.96320552 C152.82303156 347.81999461 152.78560539 360.67665108 152.78146815 373.53351802 C152.77843178 382.89607133 152.75798543 392.25839568 152.71650022 401.62086052 C152.69513879 406.57976212 152.68258573 411.53833796 152.690871 416.49728602 C152.69839128 421.1628491 152.68267119 425.82775103 152.64896464 430.49319285 C152.64070687 432.20725384 152.64101018 433.92138027 152.65042758 435.63543528 C152.66200245 437.97323962 152.64300749 440.30886006 152.61626124 442.64649409 C152.61349586 443.95544013 152.61073049 445.26438617 152.60788131 446.61299723 C151.97702479 449.88508052 151.97702479 449.88508052 149.64361548 452.21517771 C146.52057932 454.170921 143.37915788 456.01636148 140.10202479 457.69758052 C139.51550136 458.02177974 138.92897792 458.34597895 138.32468104 458.68000239 C133.31904995 461.24882626 132.13121151 460.76425005 125.97702479 459.88508052 C120.36702479 456.91508052 114.75702479 453.94508052 108.97702479 450.88508052 C108.97702479 399.07508052 108.97702479 347.26508052 108.97702479 293.88508052 C107.32702479 294.21508052 105.67702479 294.54508052 103.97702479 294.88508052 C101.76069522 294.33347148 101.76069522 294.33347148 99.48132777 293.34888667 C98.60698714 292.97149096 97.73264651 292.59409526 96.83181071 292.20526332 C91.47216667 289.72672024 86.18272551 287.11793594 80.90817714 284.46418208 C79.62610232 283.82286198 78.34385027 283.1818961 77.06143641 282.54125422 C73.60992569 280.81578364 70.1608894 279.08542075 66.7123034 277.35411376 C63.09696256 275.54015629 59.47932808 273.73078455 55.86194301 271.92090815 C49.02538184 268.49952995 42.1908688 265.07408134 35.35709703 261.64713567 C27.57142342 257.74308881 19.7834548 253.84363068 11.99529791 249.94454068 C-4.01333725 241.92979427 -20.01910682 233.90934065 -36.02297521 225.88508052 C-35.98527013 226.64651362 -35.94756505 227.40794673 -35.90871739 228.19245356 C-35.87939122 229.18801265 -35.85006505 230.18357173 -35.81985021 231.20929927 C-35.78214513 232.19760737 -35.74444005 233.18591548 -35.70559239 234.20417231 C-36.02297521 236.88508052 -36.02297521 236.88508052 -37.52370763 238.57990474 C-39.61444853 239.91576124 -41.75245685 240.88327929 -44.02297521 241.88508052 C-45.02199864 242.43293208 -46.02102208 242.98078364 -47.05031896 243.54523677 C-55.08854392 247.90714129 -55.08854392 247.90714129 -58.33938146 247.83039302 C-62.36659808 246.41178105 -66.02920959 244.42426482 -69.77297521 242.38508052 C-70.55285802 241.96871333 -71.33274083 241.55234614 -72.13625646 241.12336177 C-77.86126233 238.04679339 -77.86126233 238.04679339 -79.02297521 236.88508052 C-79.35297521 225.99508052 -79.68297521 215.10508052 -80.02297521 203.88508052 C-104.44297521 191.67508052 -128.86297521 179.46508052 -154.02297521 166.88508052 C-154.06035802 176.16246333 -154.09774083 185.43984614 -154.13625646 194.99836177 C-154.16651996 200.86361129 -154.19753442 206.72884077 -154.23195958 212.59406489 C-154.28650178 221.91069711 -154.33791189 231.22727363 -154.36941075 240.54401606 C-154.39236284 247.32861891 -154.42572934 254.11307628 -154.47167677 260.89756382 C-154.49564692 264.49093672 -154.51435071 268.08416522 -154.52058911 271.6776163 C-154.52774311 275.68618956 -154.55814457 279.69425926 -154.59060216 283.70270747 C-154.58916707 284.89816691 -154.58773198 286.09362635 -154.5862534 287.32531184 C-154.59879155 288.41486171 -154.6113297 289.50441157 -154.62424779 290.6269781 C-154.63116124 292.04976557 -154.63116124 292.04976557 -154.63821435 293.50129622 C-155.09233152 296.31477724 -155.81188436 297.15424155 -158.02297521 298.88508052 C-160.53329558 300.45934923 -163.1877284 301.74510637 -165.83547521 303.07258052 C-166.88444982 303.62462153 -166.88444982 303.62462153 -167.95461583 304.18781489 C-172.11664738 306.28635091 -175.2810051 307.67846033 -180.02297521 306.88508052 C-183.06843041 305.66623742 -185.90501665 304.15905845 -188.77297521 302.57258052 C-189.92346349 301.96639888 -189.92346349 301.96639888 -191.09719396 301.34797114 C-196.75153376 298.29224269 -196.75153376 298.29224269 -199.02297521 294.88508052 C-199.28468823 292.15771407 -199.28468823 292.15771407 -199.30144811 288.79177302 C-199.31261159 287.51711177 -199.32377507 286.24245051 -199.33527684 284.92916316 C-199.33764189 283.51383447 -199.33981752 282.09850546 -199.34182286 280.68317622 C-199.35111947 279.19506235 -199.36128774 277.7069537 -199.37226415 276.21885127 C-199.39960848 272.17578054 -199.41472664 268.13274473 -199.42769217 264.08960575 C-199.44330336 259.8654806 -199.47009997 255.641427 -199.49572301 251.41735286 C-199.5425465 243.41701261 -199.5792733 235.41665896 -199.61239588 227.41625154 C-199.65059208 218.30869322 -199.70000877 209.20120667 -199.75038004 200.09370881 C-199.85375298 181.35755188 -199.94299591 162.62135117 -200.02297521 143.88508052 C-200.64945958 143.5589477 -201.27594396 143.23281489 -201.92141271 142.89679927 C-202.73867833 142.45980708 -203.55594396 142.02281489 -204.39797521 141.57258052 C-205.21008458 141.1433227 -206.02219396 140.71406489 -206.85891271 140.27179927 C-209.02297521 138.88508052 -209.02297521 138.88508052 -211.02297521 135.88508052 C-211.29712987 133.96348017 -211.29712987 133.96348017 -211.32937169 131.7683813 C-211.34535909 130.94387477 -211.36134648 130.11936824 -211.37781835 129.26987666 C-211.38318105 128.38234706 -211.38854375 127.49481745 -211.39406896 126.58039302 C-211.40309743 125.66426234 -211.4121259 124.74813166 -211.42142797 123.80423945 C-211.43593606 121.86588771 -211.44481859 119.92748694 -211.44851232 117.98908442 C-211.46040408 115.02779282 -211.50957913 112.06858821 -211.56008458 109.10773677 C-211.56954947 107.22363235 -211.57678419 105.33951513 -211.58156896 103.45539302 C-211.61086743 102.13017131 -211.61086743 102.13017131 -211.6407578 100.77817744 C-211.63468007 99.94736659 -211.62860234 99.11655574 -211.62234044 98.2605688 C-211.62741109 97.53459498 -211.63248174 96.80862117 -211.63770604 96.06064814 C-210.56950803 92.28023421 -207.60486507 89.88943961 -204.34159559 87.8175543 C-202.37689547 86.74699041 -200.38967679 85.74470919 -198.3806107 84.75989741 C-197.61891454 84.37656048 -196.85721837 83.99322356 -196.07244051 83.59827036 C-193.52919388 82.32137547 -190.9790815 81.05886421 -188.42873693 79.79621333 C-186.59995107 78.88170701 -184.7716028 77.96632516 -182.94366002 77.05013484 C-177.98558449 74.56824578 -173.02140738 72.09879535 -168.05598903 69.6316368 C-162.86225429 67.04854632 -157.6740328 64.45442889 -152.48516393 61.86158198 C-143.77432289 57.51076169 -135.0598521 53.16728885 -126.34279943 48.82892817 C-114.04021777 42.7060712 -101.7445697 36.56939123 -89.45011806 30.43022984 C-80.94075288 26.18177064 -72.42974359 21.93660637 -63.91842055 17.69207114 C-61.85267181 16.66187911 -59.78696864 15.63159567 -57.72131038 14.60122222 C-51.83594192 11.66568176 -45.94955974 8.73219406 -40.06149983 5.80205554 C-38.27570207 4.91302264 -36.49023795 4.02331922 -34.705127 3.13290805 C-32.27480048 1.92084581 -29.84326278 0.71124978 -27.41137242 -0.49767095 C-26.34402153 -1.03097308 -26.34402153 -1.03097308 -25.255108 -1.57504898 C-15.33631289 -6.49577624 -9.59688036 -4.73436609 0 0 Z M-21.44523168 17.03608149 C-22.12395579 17.37501634 -22.80267991 17.71395118 -23.50197142 18.06315678 C-25.79386512 19.20827493 -28.08431018 20.35626158 -30.37478185 21.50422114 C-32.01029066 22.32211647 -33.64588739 23.13983601 -35.2815659 23.95739192 C-39.73680773 26.18486879 -44.19080795 28.41481821 -48.64459848 30.64519519 C-53.29372979 32.97287664 -57.94398639 35.29830773 -62.59412694 37.62397212 C-71.40638777 42.03165948 -80.21762657 46.44138596 -89.02850503 50.85183591 C-99.05657224 55.87144919 -109.08576906 60.88880349 -119.11506402 65.90596312 C-139.75229728 76.2298126 -160.38810181 86.55651514 -181.02297521 96.88508052 C-181.02297521 97.54508052 -181.02297521 98.20508052 -181.02297521 98.88508052 C-144.93636934 117.00844508 -108.84242505 135.11711432 -72.73853709 153.20602823 C-68.47888567 155.34023156 -64.21929535 157.47455683 -59.95974278 159.60895747 C-58.68770822 160.24635188 -58.68770822 160.24635188 -57.38997599 160.89662295 C-43.64806533 167.78281959 -29.91113183 174.67888885 -16.17600331 181.57860125 C-2.08877232 188.65491445 12.00373406 195.72063399 26.10122305 202.77648938 C34.80423424 207.13280415 43.50299483 211.49738917 52.19654766 215.87254959 C58.15351038 218.86949149 64.11555285 221.856154 70.08173861 224.83469225 C73.52691044 226.55503014 76.96961562 228.27989693 80.40638041 230.01697749 C84.12814747 231.89796219 87.86034287 233.7572227 91.59401393 235.61446589 C93.22971159 236.44760714 93.22971159 236.44760714 94.89845365 237.29757953 C95.89769324 237.79023065 96.89693282 238.28288177 97.9264524 238.79046172 C98.78727839 239.22220373 99.64810438 239.65394575 100.535016 240.09877086 C105.76640734 241.78324208 110.17879342 238.99698969 114.8043716 236.65178889 C115.47834631 236.31608317 116.15232102 235.98037745 116.84671921 235.63449883 C119.10048231 234.51008459 121.34985379 233.37715616 123.59933925 232.24421138 C125.21556196 231.43567685 126.8320492 230.6276709 128.44878078 229.82015437 C132.83534557 227.62730253 137.21816983 225.42706795 141.60036564 223.225501 C146.18130708 220.92565665 150.76564518 218.63260337 155.34962916 216.33883113 C164.02878801 211.99458863 172.70486963 207.64423699 181.37986559 203.29168868 C191.25650595 198.33660544 201.13655252 193.38833244 211.01689279 188.44063193 C231.34073917 178.26302775 251.6602875 168.07686771 271.97702479 157.88508052 C269.14397223 155.6454358 266.31151318 153.9274697 263.08352828 152.31388777 C262.09386323 151.81675585 261.10419819 151.31962393 260.08454329 150.80742741 C258.99962935 150.26754222 257.91471542 149.72765704 256.79692531 149.17141169 C255.64265141 148.59306754 254.48837751 148.01472338 253.29912561 147.41885364 C250.09664298 145.81440554 246.89168418 144.2149603 243.68629825 142.6163221 C240.22952456 140.89122373 236.7750582 139.16151637 233.32030177 137.43238276 C226.5536579 134.04653968 219.78488502 130.66497418 213.01538352 127.28484879 C205.13805718 123.35137484 197.26282113 119.41372458 189.3876669 115.47590419 C175.34235542 108.45299812 161.29511474 101.43395957 147.24680018 94.41706294 C133.60179257 87.60160772 119.95819297 80.78334451 106.31613612 73.96198481 C105.47541967 73.54160661 104.63470321 73.1212284 103.7685105 72.68811146 C102.92927382 72.26847294 102.09003713 71.84883442 101.22536904 71.41647959 C85.70913277 63.65801697 70.19158349 55.90218378 54.67341802 48.14758069 C49.17722444 45.40099481 43.6814238 42.65362368 38.18574405 39.90600985 C31.49551177 36.56123399 24.80452936 33.21796413 18.11259226 29.87660036 C14.69531589 28.17027804 11.27836347 26.46331519 7.86226344 24.75463885 C4.16798185 22.90685354 0.47216841 21.06215401 -3.22382665 19.21779841 C-4.8612358 18.39793239 -4.8612358 18.39793239 -6.53172392 17.56150341 C-7.51356572 17.07219473 -8.49540753 16.58288605 -9.50700212 16.07874984 C-10.7881537 15.43870236 -10.7881537 15.43870236 -12.09518713 14.78572464 C-15.69681067 13.10308062 -18.12886631 15.37038693 -21.44523168 17.03608149 Z M-193.02297521 112.88508052 C-193.02297521 117.50508052 -193.02297521 122.12508052 -193.02297521 126.88508052 C-156.35165262 145.23213605 -119.67931426 163.57715959 -83.00554669 181.91932744 C-78.68070081 184.08237577 -74.35586364 186.24544151 -70.03103185 188.40851802 C-69.1699971 188.83916654 -68.30896236 189.26981507 -67.42183565 189.71351355 C-53.46072326 196.69624832 -39.50031766 203.68039501 -25.5401705 210.66505927 C-11.22703666 217.82629385 3.08685046 224.98602103 17.40144521 232.14433497 C26.24180948 236.56520485 35.08157661 240.98726438 43.9205953 245.410824 C49.97319063 248.43975466 56.02651376 251.46722732 62.08042329 254.49353045 C65.57869268 256.24234334 69.07662603 257.9918202 72.57370067 259.74302119 C76.35578743 261.63692446 80.13939589 263.52776681 83.92317653 265.41828364 C85.04085679 265.9785802 86.15853706 266.53887675 87.31008643 267.11615199 C88.3152954 267.61776095 89.32050438 268.11936991 90.35617423 268.63617915 C91.23067015 269.07361697 92.10516607 269.51105479 93.00616187 269.9617483 C94.76521145 270.95578749 94.76521145 270.95578749 95.97702479 270.88508052 C95.97702479 266.26508052 95.97702479 261.64508052 95.97702479 256.88508052 C59.30570221 238.53802498 22.63336384 220.19300144 -14.04040372 201.85083359 C-18.3652496 199.68778526 -22.69008677 197.52471952 -27.01491857 195.36164302 C-27.87595331 194.93099449 -28.73698805 194.50034596 -29.62411476 194.05664748 C-43.58522715 187.07391272 -57.54563276 180.08976602 -71.50577991 173.10510176 C-85.81891376 165.94386718 -100.13280088 158.78414001 -114.44739562 151.62582606 C-123.28775989 147.20495619 -132.12752702 142.78289665 -140.96654571 138.35933703 C-147.01914105 135.33040638 -153.07246418 132.30293371 -159.1263737 129.27663058 C-162.6246431 127.52781769 -166.12257645 125.77834083 -169.61965108 124.02713984 C-173.40173784 122.13323657 -177.1853463 120.24239423 -180.96912694 118.35187739 C-182.08680721 117.79158084 -183.20448748 117.23128428 -184.35603684 116.65400904 C-185.36124582 116.15240008 -186.36645479 115.65079112 -187.40212464 115.13398188 C-188.27662056 114.69654406 -189.15111648 114.25910624 -190.05211228 113.80841273 C-191.81116187 112.81437354 -191.81116187 112.81437354 -193.02297521 112.88508052 Z M-189.02297521 148.88508052 C-189.13969127 167.34769677 -189.22790573 185.81023834 -189.28203607 204.27314681 C-189.30783596 212.84549548 -189.34302028 221.41761515 -189.40017247 229.98981684 C-189.44995316 237.45992455 -189.48225323 244.92986644 -189.49341768 252.4001354 C-189.49994561 256.35698878 -189.5153242 260.31336774 -189.55162549 264.2700693 C-189.5855013 267.99247417 -189.5960456 271.71420813 -189.58851361 275.4367525 C-189.59055044 277.45802687 -189.61748962 279.47922775 -189.64507604 281.50031489 C-189.63820271 282.69924876 -189.63132939 283.89818263 -189.62424779 285.13344783 C-189.62885675 286.17783928 -189.63346572 287.22223073 -189.63821435 288.2982704 C-189.25651301 291.1084393 -189.25651301 291.1084393 -186.61039567 292.74455756 C-184.18923271 294.01952994 -184.18923271 294.01952994 -182.02297521 293.88508052 C-182.02297521 247.02508052 -182.02297521 200.16508052 -182.02297521 151.88508052 C-184.33297521 150.89508052 -186.64297521 149.90508052 -189.02297521 148.88508052 Z M-172.02297521 157.88508052 C-172.02297521 203.09508052 -172.02297521 248.30508052 -172.02297521 294.88508052 C-169.71297521 293.89508052 -167.40297521 292.90508052 -165.02297521 291.88508052 C-164.90624943 274.85667491 -164.81804007 257.82839388 -164.76391435 240.79967993 C-164.73811645 232.89319643 -164.70293608 224.98696127 -164.64577794 217.08063716 C-164.59599097 210.19064416 -164.56369572 203.300831 -164.55253273 196.41066313 C-164.54600581 192.76119455 -164.53063412 189.11224048 -164.49432492 185.46293658 C-164.45414873 181.39207323 -164.4530227 177.32210815 -164.45534825 173.25104731 C-164.43737187 172.03688639 -164.41939549 170.82272547 -164.40087438 169.5717718 C-164.4077477 168.46539363 -164.41462102 167.35901545 -164.42170262 166.21911067 C-164.41709366 165.255837 -164.41248469 164.29256333 -164.40773606 163.30009955 C-164.81694554 160.64699766 -164.81694554 160.64699766 -167.43555474 159.05170363 C-169.85380424 157.74806927 -169.85380424 157.74806927 -172.02297521 157.88508052 Z M274.44124293 176.02935237 C273.76236996 176.36758165 273.08349698 176.70581093 272.3840521 177.05428958 C270.09663199 178.19516879 267.81212976 179.3417732 265.5275619 180.488352 C263.89361116 181.30479124 262.25948736 182.12088422 260.62520289 182.93665522 C256.17727343 185.15818985 251.73186841 187.38473343 247.28693914 189.61226362 C242.64421837 191.9380044 237.9993985 194.25954567 233.35484767 196.58162898 C225.55460723 200.48221795 217.75592465 204.38590714 209.95822597 208.29157466 C200.93047746 212.81331322 191.90064394 217.33086471 182.86960095 221.84601939 C174.19750437 226.18176296 165.52655143 230.51978825 156.85623813 234.85909671 C153.15918937 236.70939075 149.4617985 238.55899861 145.76414752 240.40808886 C141.41388011 242.58372327 137.06463415 244.76138619 132.71618533 246.94065303 C131.11568276 247.74237004 129.51483675 248.54340185 127.91363215 249.34371585 C125.73676479 250.4319058 123.56113537 251.52253073 121.38582301 252.61382502 C120.74420268 252.93386089 120.10258234 253.25389676 119.44151896 253.58363068 C116.51408638 254.94603951 116.51408638 254.94603951 113.97702479 256.88508052 C113.90443533 259.07147505 113.89328697 261.26008441 113.91452479 263.44758052 C113.92354823 264.64511958 113.93257167 265.84265864 113.94186854 267.07648677 C113.95347011 268.0033227 113.96507167 268.93015864 113.97702479 269.88508052 C118.48262549 268.49499512 122.64164124 266.6940372 126.84196925 264.57622737 C127.50792572 264.24445634 128.17388218 263.91268532 128.86001915 263.57086062 C131.07972782 262.46381281 133.2965431 261.35109461 135.51340175 260.238352 C137.10853437 259.44132241 138.70384015 258.64463931 140.29930568 257.84827632 C144.62303145 255.68883342 148.94424554 253.52440858 153.26496983 251.35896772 C157.78487558 249.09462046 162.30689174 246.8344953 166.82863307 244.57381648 C174.41665468 240.77933772 182.00312181 236.98176601 189.58859706 233.18219966 C198.36876064 228.78424306 207.15101762 224.39049077 215.93447977 219.99912608 C224.37806002 215.77764063 232.82049704 211.55387444 241.26229358 207.32882327 C244.85886352 205.5287694 248.45577499 203.72940059 252.05294681 201.9305498 C256.28179251 199.81562634 260.50961685 197.69867495 264.73664355 195.58011836 C266.29199793 194.80097552 267.8476957 194.02251773 269.40375209 193.24477786 C271.51909874 192.18734826 273.63320698 191.12748394 275.74699855 190.06695002 C276.37032661 189.75606029 276.99365468 189.44517056 277.63587147 189.12485993 C280.49786215 187.78747777 280.49786215 187.78747777 282.97702479 185.88508052 C283.04961425 183.69868598 283.06076262 181.51007663 283.03952479 179.32258052 C283.03050136 178.12504145 283.02147792 176.92750239 283.01218104 175.69367427 C283.00057948 174.76683833 282.98897792 173.84000239 282.97702479 172.88508052 C279.79612648 172.88508052 277.23105245 174.62322631 274.44124293 176.02935237 Z M-70.02297521 208.88508052 C-70.02297521 216.14508052 -70.02297521 223.40508052 -70.02297521 230.88508052 C-66.06297521 232.86508052 -66.06297521 232.86508052 -62.02297521 234.88508052 C-62.02297521 227.29508052 -62.02297521 219.70508052 -62.02297521 211.88508052 C-67.20308361 208.73600932 -67.20308361 208.73600932 -70.02297521 208.88508052 Z M-53.02297521 216.88508052 C-53.02297521 222.82508052 -53.02297521 228.76508052 -53.02297521 234.88508052 C-48.94571448 233.57160442 -48.94571448 233.57160442 -45.02297521 231.88508052 C-45.02297521 228.25508052 -45.02297521 224.62508052 -45.02297521 220.88508052 C-47.66297521 219.56508052 -50.30297521 218.24508052 -53.02297521 216.88508052 Z M254.97702479 219.88508052 C254.97702479 275.32508052 254.97702479 330.76508052 254.97702479 387.88508052 C260.4552756 386.55590091 260.4552756 386.55590091 261.97702479 384.88508052 C262.07397797 382.72081878 262.09889244 380.55332798 262.09727931 378.38689631 C262.09856095 377.35655948 262.09856095 377.35655948 262.09986848 376.30540776 C262.10152524 373.98680596 262.09599873 371.66827534 262.09055018 369.34968013 C262.09026833 367.69438127 262.09042601 366.0390823 262.09099269 364.38378352 C262.09128073 359.87571119 262.08538298 355.36766523 262.07841873 350.85959905 C262.07218624 346.15370315 262.07158148 341.4478067 262.07039332 336.7419073 C262.0672797 327.82419418 262.05906589 318.90649325 262.04904383 309.98878551 C262.03788367 299.83901755 262.03237249 289.68924902 262.0273484 279.53947645 C262.0168833 258.65467099 261.99928325 237.76987652 261.97702479 216.88508052 C259.43843376 216.88508052 257.24760964 218.74978809 254.97702479 219.88508052 Z M236.97702479 228.88508052 C236.97702479 280.36508052 236.97702479 331.84508052 236.97702479 384.88508052 C242.1571332 388.03415171 242.1571332 388.03415171 244.97702479 387.88508052 C244.97702479 334.42508052 244.97702479 280.96508052 244.97702479 225.88508052 C242.1571332 225.73600932 242.1571332 225.73600932 236.97702479 228.88508052 Z M134.97702479 279.88508052 C134.97702479 335.32508052 134.97702479 390.76508052 134.97702479 447.88508052 C139.05428552 446.57160442 139.05428552 446.57160442 142.97702479 444.88508052 C142.97702479 389.44508052 142.97702479 334.00508052 142.97702479 276.88508052 C140.1571332 276.73600932 140.1571332 276.73600932 134.97702479 279.88508052 Z M117.97702479 288.88508052 C117.97702479 340.36508052 117.97702479 391.84508052 117.97702479 444.88508052 C123.1571332 448.03415171 123.1571332 448.03415171 125.97702479 447.88508052 C125.97702479 394.09508052 125.97702479 340.30508052 125.97702479 284.88508052 C122.99560082 284.88508052 120.56562571 287.40587999 117.97702479 288.88508052 Z " fill="#000000" transform="translate(211.02297520637512,28.11491948366165)"/>
</svg>
